<?xml version="1.0" encoding="utf-8" standalone="no"?>
<!DOCTYPE svg PUBLIC "-//W3C//DTD SVG 1.1//EN"
  "http://www.w3.org/Graphics/SVG/1.1/DTD/svg11.dtd">
<svg xmlns:xlink="http://www.w3.org/1999/xlink" width="411.285625pt" height="325.986375pt" viewBox="0 0 411.285625 325.986375" xmlns="http://www.w3.org/2000/svg" version="1.1">
 <metadata>
  <rdf:RDF xmlns:dc="http://purl.org/dc/elements/1.1/" xmlns:cc="http://creativecommons.org/ns#" xmlns:rdf="http://www.w3.org/1999/02/22-rdf-syntax-ns#">
   <cc:Work>
    <dc:type rdf:resource="http://purl.org/dc/dcmitype/StillImage"/>
    <dc:date>2022-11-17T20:50:21.948336</dc:date>
    <dc:format>image/svg+xml</dc:format>
    <dc:creator>
     <cc:Agent>
      <dc:title>Matplotlib v3.6.0, https://matplotlib.org/</dc:title>
     </cc:Agent>
    </dc:creator>
   </cc:Work>
  </rdf:RDF>
 </metadata>
 <defs>
  <style type="text/css">*{stroke-linejoin: round; stroke-linecap: butt}</style>
 </defs>
 <g id="figure_1">
  <g id="patch_1">
   <path d="M 0 325.986375 
L 411.285625 325.986375 
L 411.285625 0 
L 0 0 
z
" style="fill: #ffffff"/>
  </g>
  <g id="axes_1">
   <g id="patch_2">
    <path d="M 46.965625 288.430125 
L 404.085625 288.430125 
L 404.085625 22.318125 
L 46.965625 22.318125 
z
" style="fill: #ffffff"/>
   </g>
   <g id="matplotlib.axis_1">
    <g id="xtick_1">
     <g id="line2d_1">
      <path d="M 387.852898 288.430125 
L 387.852898 22.318125 
" clip-path="url(#p3bb8e35533)" style="fill: none; stroke: #b0b0b0; stroke-width: 0.8; stroke-linecap: square"/>
     </g>
     <g id="line2d_2">
      <defs>
       <path id="m671ddc024a" d="M 0 0 
L 0 3.5 
" style="stroke: #000000; stroke-width: 0.8"/>
      </defs>
      <g>
       <use xlink:href="#m671ddc024a" x="387.852898" y="288.430125" style="stroke: #000000; stroke-width: 0.8"/>
      </g>
     </g>
     <g id="text_1">
      <!-- 0 -->
      <g transform="translate(384.671648 303.028562) scale(0.1 -0.1)">
       <defs>
        <path id="DejaVuSans-30" d="M 2034 4250 
Q 1547 4250 1301 3770 
Q 1056 3291 1056 2328 
Q 1056 1369 1301 889 
Q 1547 409 2034 409 
Q 2525 409 2770 889 
Q 3016 1369 3016 2328 
Q 3016 3291 2770 3770 
Q 2525 4250 2034 4250 
z
M 2034 4750 
Q 2819 4750 3233 4129 
Q 3647 3509 3647 2328 
Q 3647 1150 3233 529 
Q 2819 -91 2034 -91 
Q 1250 -91 836 529 
Q 422 1150 422 2328 
Q 422 3509 836 4129 
Q 1250 4750 2034 4750 
z
" transform="scale(0.015625)"/>
       </defs>
       <use xlink:href="#DejaVuSans-30"/>
      </g>
     </g>
    </g>
    <g id="xtick_2">
     <g id="line2d_3">
      <path d="M 322.921989 288.430125 
L 322.921989 22.318125 
" clip-path="url(#p3bb8e35533)" style="fill: none; stroke: #b0b0b0; stroke-width: 0.8; stroke-linecap: square"/>
     </g>
     <g id="line2d_4">
      <g>
       <use xlink:href="#m671ddc024a" x="322.921989" y="288.430125" style="stroke: #000000; stroke-width: 0.8"/>
      </g>
     </g>
     <g id="text_2">
      <!-- 20 -->
      <g transform="translate(316.559489 303.028562) scale(0.1 -0.1)">
       <defs>
        <path id="DejaVuSans-32" d="M 1228 531 
L 3431 531 
L 3431 0 
L 469 0 
L 469 531 
Q 828 903 1448 1529 
Q 2069 2156 2228 2338 
Q 2531 2678 2651 2914 
Q 2772 3150 2772 3378 
Q 2772 3750 2511 3984 
Q 2250 4219 1831 4219 
Q 1534 4219 1204 4116 
Q 875 4013 500 3803 
L 500 4441 
Q 881 4594 1212 4672 
Q 1544 4750 1819 4750 
Q 2544 4750 2975 4387 
Q 3406 4025 3406 3419 
Q 3406 3131 3298 2873 
Q 3191 2616 2906 2266 
Q 2828 2175 2409 1742 
Q 1991 1309 1228 531 
z
" transform="scale(0.015625)"/>
       </defs>
       <use xlink:href="#DejaVuSans-32"/>
       <use xlink:href="#DejaVuSans-30" x="63.623047"/>
      </g>
     </g>
    </g>
    <g id="xtick_3">
     <g id="line2d_5">
      <path d="M 257.99108 288.430125 
L 257.99108 22.318125 
" clip-path="url(#p3bb8e35533)" style="fill: none; stroke: #b0b0b0; stroke-width: 0.8; stroke-linecap: square"/>
     </g>
     <g id="line2d_6">
      <g>
       <use xlink:href="#m671ddc024a" x="257.99108" y="288.430125" style="stroke: #000000; stroke-width: 0.8"/>
      </g>
     </g>
     <g id="text_3">
      <!-- 40 -->
      <g transform="translate(251.62858 303.028562) scale(0.1 -0.1)">
       <defs>
        <path id="DejaVuSans-34" d="M 2419 4116 
L 825 1625 
L 2419 1625 
L 2419 4116 
z
M 2253 4666 
L 3047 4666 
L 3047 1625 
L 3713 1625 
L 3713 1100 
L 3047 1100 
L 3047 0 
L 2419 0 
L 2419 1100 
L 313 1100 
L 313 1709 
L 2253 4666 
z
" transform="scale(0.015625)"/>
       </defs>
       <use xlink:href="#DejaVuSans-34"/>
       <use xlink:href="#DejaVuSans-30" x="63.623047"/>
      </g>
     </g>
    </g>
    <g id="xtick_4">
     <g id="line2d_7">
      <path d="M 193.06017 288.430125 
L 193.06017 22.318125 
" clip-path="url(#p3bb8e35533)" style="fill: none; stroke: #b0b0b0; stroke-width: 0.8; stroke-linecap: square"/>
     </g>
     <g id="line2d_8">
      <g>
       <use xlink:href="#m671ddc024a" x="193.06017" y="288.430125" style="stroke: #000000; stroke-width: 0.8"/>
      </g>
     </g>
     <g id="text_4">
      <!-- 60 -->
      <g transform="translate(186.69767 303.028562) scale(0.1 -0.1)">
       <defs>
        <path id="DejaVuSans-36" d="M 2113 2584 
Q 1688 2584 1439 2293 
Q 1191 2003 1191 1497 
Q 1191 994 1439 701 
Q 1688 409 2113 409 
Q 2538 409 2786 701 
Q 3034 994 3034 1497 
Q 3034 2003 2786 2293 
Q 2538 2584 2113 2584 
z
M 3366 4563 
L 3366 3988 
Q 3128 4100 2886 4159 
Q 2644 4219 2406 4219 
Q 1781 4219 1451 3797 
Q 1122 3375 1075 2522 
Q 1259 2794 1537 2939 
Q 1816 3084 2150 3084 
Q 2853 3084 3261 2657 
Q 3669 2231 3669 1497 
Q 3669 778 3244 343 
Q 2819 -91 2113 -91 
Q 1303 -91 875 529 
Q 447 1150 447 2328 
Q 447 3434 972 4092 
Q 1497 4750 2381 4750 
Q 2619 4750 2861 4703 
Q 3103 4656 3366 4563 
z
" transform="scale(0.015625)"/>
       </defs>
       <use xlink:href="#DejaVuSans-36"/>
       <use xlink:href="#DejaVuSans-30" x="63.623047"/>
      </g>
     </g>
    </g>
    <g id="xtick_5">
     <g id="line2d_9">
      <path d="M 128.129261 288.430125 
L 128.129261 22.318125 
" clip-path="url(#p3bb8e35533)" style="fill: none; stroke: #b0b0b0; stroke-width: 0.8; stroke-linecap: square"/>
     </g>
     <g id="line2d_10">
      <g>
       <use xlink:href="#m671ddc024a" x="128.129261" y="288.430125" style="stroke: #000000; stroke-width: 0.8"/>
      </g>
     </g>
     <g id="text_5">
      <!-- 80 -->
      <g transform="translate(121.766761 303.028562) scale(0.1 -0.1)">
       <defs>
        <path id="DejaVuSans-38" d="M 2034 2216 
Q 1584 2216 1326 1975 
Q 1069 1734 1069 1313 
Q 1069 891 1326 650 
Q 1584 409 2034 409 
Q 2484 409 2743 651 
Q 3003 894 3003 1313 
Q 3003 1734 2745 1975 
Q 2488 2216 2034 2216 
z
M 1403 2484 
Q 997 2584 770 2862 
Q 544 3141 544 3541 
Q 544 4100 942 4425 
Q 1341 4750 2034 4750 
Q 2731 4750 3128 4425 
Q 3525 4100 3525 3541 
Q 3525 3141 3298 2862 
Q 3072 2584 2669 2484 
Q 3125 2378 3379 2068 
Q 3634 1759 3634 1313 
Q 3634 634 3220 271 
Q 2806 -91 2034 -91 
Q 1263 -91 848 271 
Q 434 634 434 1313 
Q 434 1759 690 2068 
Q 947 2378 1403 2484 
z
M 1172 3481 
Q 1172 3119 1398 2916 
Q 1625 2713 2034 2713 
Q 2441 2713 2670 2916 
Q 2900 3119 2900 3481 
Q 2900 3844 2670 4047 
Q 2441 4250 2034 4250 
Q 1625 4250 1398 4047 
Q 1172 3844 1172 3481 
z
" transform="scale(0.015625)"/>
       </defs>
       <use xlink:href="#DejaVuSans-38"/>
       <use xlink:href="#DejaVuSans-30" x="63.623047"/>
      </g>
     </g>
    </g>
    <g id="xtick_6">
     <g id="line2d_11">
      <path d="M 63.198352 288.430125 
L 63.198352 22.318125 
" clip-path="url(#p3bb8e35533)" style="fill: none; stroke: #b0b0b0; stroke-width: 0.8; stroke-linecap: square"/>
     </g>
     <g id="line2d_12">
      <g>
       <use xlink:href="#m671ddc024a" x="63.198352" y="288.430125" style="stroke: #000000; stroke-width: 0.8"/>
      </g>
     </g>
     <g id="text_6">
      <!-- 100 -->
      <g transform="translate(53.654602 303.028562) scale(0.1 -0.1)">
       <defs>
        <path id="DejaVuSans-31" d="M 794 531 
L 1825 531 
L 1825 4091 
L 703 3866 
L 703 4441 
L 1819 4666 
L 2450 4666 
L 2450 531 
L 3481 531 
L 3481 0 
L 794 0 
L 794 531 
z
" transform="scale(0.015625)"/>
       </defs>
       <use xlink:href="#DejaVuSans-31"/>
       <use xlink:href="#DejaVuSans-30" x="63.623047"/>
       <use xlink:href="#DejaVuSans-30" x="127.246094"/>
      </g>
     </g>
    </g>
    <g id="text_7">
     <!-- Shot probablity model percentile -->
     <g transform="translate(143.536563 316.706687) scale(0.1 -0.1)">
      <defs>
       <path id="DejaVuSans-53" d="M 3425 4513 
L 3425 3897 
Q 3066 4069 2747 4153 
Q 2428 4238 2131 4238 
Q 1616 4238 1336 4038 
Q 1056 3838 1056 3469 
Q 1056 3159 1242 3001 
Q 1428 2844 1947 2747 
L 2328 2669 
Q 3034 2534 3370 2195 
Q 3706 1856 3706 1288 
Q 3706 609 3251 259 
Q 2797 -91 1919 -91 
Q 1588 -91 1214 -16 
Q 841 59 441 206 
L 441 856 
Q 825 641 1194 531 
Q 1563 422 1919 422 
Q 2459 422 2753 634 
Q 3047 847 3047 1241 
Q 3047 1584 2836 1778 
Q 2625 1972 2144 2069 
L 1759 2144 
Q 1053 2284 737 2584 
Q 422 2884 422 3419 
Q 422 4038 858 4394 
Q 1294 4750 2059 4750 
Q 2388 4750 2728 4690 
Q 3069 4631 3425 4513 
z
" transform="scale(0.015625)"/>
       <path id="DejaVuSans-68" d="M 3513 2113 
L 3513 0 
L 2938 0 
L 2938 2094 
Q 2938 2591 2744 2837 
Q 2550 3084 2163 3084 
Q 1697 3084 1428 2787 
Q 1159 2491 1159 1978 
L 1159 0 
L 581 0 
L 581 4863 
L 1159 4863 
L 1159 2956 
Q 1366 3272 1645 3428 
Q 1925 3584 2291 3584 
Q 2894 3584 3203 3211 
Q 3513 2838 3513 2113 
z
" transform="scale(0.015625)"/>
       <path id="DejaVuSans-6f" d="M 1959 3097 
Q 1497 3097 1228 2736 
Q 959 2375 959 1747 
Q 959 1119 1226 758 
Q 1494 397 1959 397 
Q 2419 397 2687 759 
Q 2956 1122 2956 1747 
Q 2956 2369 2687 2733 
Q 2419 3097 1959 3097 
z
M 1959 3584 
Q 2709 3584 3137 3096 
Q 3566 2609 3566 1747 
Q 3566 888 3137 398 
Q 2709 -91 1959 -91 
Q 1206 -91 779 398 
Q 353 888 353 1747 
Q 353 2609 779 3096 
Q 1206 3584 1959 3584 
z
" transform="scale(0.015625)"/>
       <path id="DejaVuSans-74" d="M 1172 4494 
L 1172 3500 
L 2356 3500 
L 2356 3053 
L 1172 3053 
L 1172 1153 
Q 1172 725 1289 603 
Q 1406 481 1766 481 
L 2356 481 
L 2356 0 
L 1766 0 
Q 1100 0 847 248 
Q 594 497 594 1153 
L 594 3053 
L 172 3053 
L 172 3500 
L 594 3500 
L 594 4494 
L 1172 4494 
z
" transform="scale(0.015625)"/>
       <path id="DejaVuSans-20" transform="scale(0.015625)"/>
       <path id="DejaVuSans-70" d="M 1159 525 
L 1159 -1331 
L 581 -1331 
L 581 3500 
L 1159 3500 
L 1159 2969 
Q 1341 3281 1617 3432 
Q 1894 3584 2278 3584 
Q 2916 3584 3314 3078 
Q 3713 2572 3713 1747 
Q 3713 922 3314 415 
Q 2916 -91 2278 -91 
Q 1894 -91 1617 61 
Q 1341 213 1159 525 
z
M 3116 1747 
Q 3116 2381 2855 2742 
Q 2594 3103 2138 3103 
Q 1681 3103 1420 2742 
Q 1159 2381 1159 1747 
Q 1159 1113 1420 752 
Q 1681 391 2138 391 
Q 2594 391 2855 752 
Q 3116 1113 3116 1747 
z
" transform="scale(0.015625)"/>
       <path id="DejaVuSans-72" d="M 2631 2963 
Q 2534 3019 2420 3045 
Q 2306 3072 2169 3072 
Q 1681 3072 1420 2755 
Q 1159 2438 1159 1844 
L 1159 0 
L 581 0 
L 581 3500 
L 1159 3500 
L 1159 2956 
Q 1341 3275 1631 3429 
Q 1922 3584 2338 3584 
Q 2397 3584 2469 3576 
Q 2541 3569 2628 3553 
L 2631 2963 
z
" transform="scale(0.015625)"/>
       <path id="DejaVuSans-62" d="M 3116 1747 
Q 3116 2381 2855 2742 
Q 2594 3103 2138 3103 
Q 1681 3103 1420 2742 
Q 1159 2381 1159 1747 
Q 1159 1113 1420 752 
Q 1681 391 2138 391 
Q 2594 391 2855 752 
Q 3116 1113 3116 1747 
z
M 1159 2969 
Q 1341 3281 1617 3432 
Q 1894 3584 2278 3584 
Q 2916 3584 3314 3078 
Q 3713 2572 3713 1747 
Q 3713 922 3314 415 
Q 2916 -91 2278 -91 
Q 1894 -91 1617 61 
Q 1341 213 1159 525 
L 1159 0 
L 581 0 
L 581 4863 
L 1159 4863 
L 1159 2969 
z
" transform="scale(0.015625)"/>
       <path id="DejaVuSans-61" d="M 2194 1759 
Q 1497 1759 1228 1600 
Q 959 1441 959 1056 
Q 959 750 1161 570 
Q 1363 391 1709 391 
Q 2188 391 2477 730 
Q 2766 1069 2766 1631 
L 2766 1759 
L 2194 1759 
z
M 3341 1997 
L 3341 0 
L 2766 0 
L 2766 531 
Q 2569 213 2275 61 
Q 1981 -91 1556 -91 
Q 1019 -91 701 211 
Q 384 513 384 1019 
Q 384 1609 779 1909 
Q 1175 2209 1959 2209 
L 2766 2209 
L 2766 2266 
Q 2766 2663 2505 2880 
Q 2244 3097 1772 3097 
Q 1472 3097 1187 3025 
Q 903 2953 641 2809 
L 641 3341 
Q 956 3463 1253 3523 
Q 1550 3584 1831 3584 
Q 2591 3584 2966 3190 
Q 3341 2797 3341 1997 
z
" transform="scale(0.015625)"/>
       <path id="DejaVuSans-6c" d="M 603 4863 
L 1178 4863 
L 1178 0 
L 603 0 
L 603 4863 
z
" transform="scale(0.015625)"/>
       <path id="DejaVuSans-69" d="M 603 3500 
L 1178 3500 
L 1178 0 
L 603 0 
L 603 3500 
z
M 603 4863 
L 1178 4863 
L 1178 4134 
L 603 4134 
L 603 4863 
z
" transform="scale(0.015625)"/>
       <path id="DejaVuSans-79" d="M 2059 -325 
Q 1816 -950 1584 -1140 
Q 1353 -1331 966 -1331 
L 506 -1331 
L 506 -850 
L 844 -850 
Q 1081 -850 1212 -737 
Q 1344 -625 1503 -206 
L 1606 56 
L 191 3500 
L 800 3500 
L 1894 763 
L 2988 3500 
L 3597 3500 
L 2059 -325 
z
" transform="scale(0.015625)"/>
       <path id="DejaVuSans-6d" d="M 3328 2828 
Q 3544 3216 3844 3400 
Q 4144 3584 4550 3584 
Q 5097 3584 5394 3201 
Q 5691 2819 5691 2113 
L 5691 0 
L 5113 0 
L 5113 2094 
Q 5113 2597 4934 2840 
Q 4756 3084 4391 3084 
Q 3944 3084 3684 2787 
Q 3425 2491 3425 1978 
L 3425 0 
L 2847 0 
L 2847 2094 
Q 2847 2600 2669 2842 
Q 2491 3084 2119 3084 
Q 1678 3084 1418 2786 
Q 1159 2488 1159 1978 
L 1159 0 
L 581 0 
L 581 3500 
L 1159 3500 
L 1159 2956 
Q 1356 3278 1631 3431 
Q 1906 3584 2284 3584 
Q 2666 3584 2933 3390 
Q 3200 3197 3328 2828 
z
" transform="scale(0.015625)"/>
       <path id="DejaVuSans-64" d="M 2906 2969 
L 2906 4863 
L 3481 4863 
L 3481 0 
L 2906 0 
L 2906 525 
Q 2725 213 2448 61 
Q 2172 -91 1784 -91 
Q 1150 -91 751 415 
Q 353 922 353 1747 
Q 353 2572 751 3078 
Q 1150 3584 1784 3584 
Q 2172 3584 2448 3432 
Q 2725 3281 2906 2969 
z
M 947 1747 
Q 947 1113 1208 752 
Q 1469 391 1925 391 
Q 2381 391 2643 752 
Q 2906 1113 2906 1747 
Q 2906 2381 2643 2742 
Q 2381 3103 1925 3103 
Q 1469 3103 1208 2742 
Q 947 2381 947 1747 
z
" transform="scale(0.015625)"/>
       <path id="DejaVuSans-65" d="M 3597 1894 
L 3597 1613 
L 953 1613 
Q 991 1019 1311 708 
Q 1631 397 2203 397 
Q 2534 397 2845 478 
Q 3156 559 3463 722 
L 3463 178 
Q 3153 47 2828 -22 
Q 2503 -91 2169 -91 
Q 1331 -91 842 396 
Q 353 884 353 1716 
Q 353 2575 817 3079 
Q 1281 3584 2069 3584 
Q 2775 3584 3186 3129 
Q 3597 2675 3597 1894 
z
M 3022 2063 
Q 3016 2534 2758 2815 
Q 2500 3097 2075 3097 
Q 1594 3097 1305 2825 
Q 1016 2553 972 2059 
L 3022 2063 
z
" transform="scale(0.015625)"/>
       <path id="DejaVuSans-63" d="M 3122 3366 
L 3122 2828 
Q 2878 2963 2633 3030 
Q 2388 3097 2138 3097 
Q 1578 3097 1268 2742 
Q 959 2388 959 1747 
Q 959 1106 1268 751 
Q 1578 397 2138 397 
Q 2388 397 2633 464 
Q 2878 531 3122 666 
L 3122 134 
Q 2881 22 2623 -34 
Q 2366 -91 2075 -91 
Q 1284 -91 818 406 
Q 353 903 353 1747 
Q 353 2603 823 3093 
Q 1294 3584 2113 3584 
Q 2378 3584 2631 3529 
Q 2884 3475 3122 3366 
z
" transform="scale(0.015625)"/>
       <path id="DejaVuSans-6e" d="M 3513 2113 
L 3513 0 
L 2938 0 
L 2938 2094 
Q 2938 2591 2744 2837 
Q 2550 3084 2163 3084 
Q 1697 3084 1428 2787 
Q 1159 2491 1159 1978 
L 1159 0 
L 581 0 
L 581 3500 
L 1159 3500 
L 1159 2956 
Q 1366 3272 1645 3428 
Q 1925 3584 2291 3584 
Q 2894 3584 3203 3211 
Q 3513 2838 3513 2113 
z
" transform="scale(0.015625)"/>
      </defs>
      <use xlink:href="#DejaVuSans-53"/>
      <use xlink:href="#DejaVuSans-68" x="63.476562"/>
      <use xlink:href="#DejaVuSans-6f" x="126.855469"/>
      <use xlink:href="#DejaVuSans-74" x="188.037109"/>
      <use xlink:href="#DejaVuSans-20" x="227.246094"/>
      <use xlink:href="#DejaVuSans-70" x="259.033203"/>
      <use xlink:href="#DejaVuSans-72" x="322.509766"/>
      <use xlink:href="#DejaVuSans-6f" x="361.373047"/>
      <use xlink:href="#DejaVuSans-62" x="422.554688"/>
      <use xlink:href="#DejaVuSans-61" x="486.03125"/>
      <use xlink:href="#DejaVuSans-62" x="547.310547"/>
      <use xlink:href="#DejaVuSans-6c" x="610.787109"/>
      <use xlink:href="#DejaVuSans-69" x="638.570312"/>
      <use xlink:href="#DejaVuSans-74" x="666.353516"/>
      <use xlink:href="#DejaVuSans-79" x="705.5625"/>
      <use xlink:href="#DejaVuSans-20" x="764.742188"/>
      <use xlink:href="#DejaVuSans-6d" x="796.529297"/>
      <use xlink:href="#DejaVuSans-6f" x="893.941406"/>
      <use xlink:href="#DejaVuSans-64" x="955.123047"/>
      <use xlink:href="#DejaVuSans-65" x="1018.599609"/>
      <use xlink:href="#DejaVuSans-6c" x="1080.123047"/>
      <use xlink:href="#DejaVuSans-20" x="1107.90625"/>
      <use xlink:href="#DejaVuSans-70" x="1139.693359"/>
      <use xlink:href="#DejaVuSans-65" x="1203.169922"/>
      <use xlink:href="#DejaVuSans-72" x="1264.693359"/>
      <use xlink:href="#DejaVuSans-63" x="1303.556641"/>
      <use xlink:href="#DejaVuSans-65" x="1358.537109"/>
      <use xlink:href="#DejaVuSans-6e" x="1420.060547"/>
      <use xlink:href="#DejaVuSans-74" x="1483.439453"/>
      <use xlink:href="#DejaVuSans-69" x="1522.648438"/>
      <use xlink:href="#DejaVuSans-6c" x="1550.431641"/>
      <use xlink:href="#DejaVuSans-65" x="1578.214844"/>
     </g>
    </g>
   </g>
   <g id="matplotlib.axis_2">
    <g id="ytick_1">
     <g id="line2d_13">
      <path d="M 46.965625 288.430125 
L 404.085625 288.430125 
" clip-path="url(#p3bb8e35533)" style="fill: none; stroke: #b0b0b0; stroke-width: 0.8; stroke-linecap: square"/>
     </g>
     <g id="line2d_14">
      <defs>
       <path id="m05f0cce59b" d="M 0 0 
L -3.5 0 
" style="stroke: #000000; stroke-width: 0.8"/>
      </defs>
      <g>
       <use xlink:href="#m05f0cce59b" x="46.965625" y="288.430125" style="stroke: #000000; stroke-width: 0.8"/>
      </g>
     </g>
     <g id="text_8">
      <!-- 0 -->
      <g transform="translate(33.603125 292.229344) scale(0.1 -0.1)">
       <use xlink:href="#DejaVuSans-30"/>
      </g>
     </g>
    </g>
    <g id="ytick_2">
     <g id="line2d_15">
      <path d="M 46.965625 235.207725 
L 404.085625 235.207725 
" clip-path="url(#p3bb8e35533)" style="fill: none; stroke: #b0b0b0; stroke-width: 0.8; stroke-linecap: square"/>
     </g>
     <g id="line2d_16">
      <g>
       <use xlink:href="#m05f0cce59b" x="46.965625" y="235.207725" style="stroke: #000000; stroke-width: 0.8"/>
      </g>
     </g>
     <g id="text_9">
      <!-- 20 -->
      <g transform="translate(27.240625 239.006944) scale(0.1 -0.1)">
       <use xlink:href="#DejaVuSans-32"/>
       <use xlink:href="#DejaVuSans-30" x="63.623047"/>
      </g>
     </g>
    </g>
    <g id="ytick_3">
     <g id="line2d_17">
      <path d="M 46.965625 181.985325 
L 404.085625 181.985325 
" clip-path="url(#p3bb8e35533)" style="fill: none; stroke: #b0b0b0; stroke-width: 0.8; stroke-linecap: square"/>
     </g>
     <g id="line2d_18">
      <g>
       <use xlink:href="#m05f0cce59b" x="46.965625" y="181.985325" style="stroke: #000000; stroke-width: 0.8"/>
      </g>
     </g>
     <g id="text_10">
      <!-- 40 -->
      <g transform="translate(27.240625 185.784544) scale(0.1 -0.1)">
       <use xlink:href="#DejaVuSans-34"/>
       <use xlink:href="#DejaVuSans-30" x="63.623047"/>
      </g>
     </g>
    </g>
    <g id="ytick_4">
     <g id="line2d_19">
      <path d="M 46.965625 128.762925 
L 404.085625 128.762925 
" clip-path="url(#p3bb8e35533)" style="fill: none; stroke: #b0b0b0; stroke-width: 0.8; stroke-linecap: square"/>
     </g>
     <g id="line2d_20">
      <g>
       <use xlink:href="#m05f0cce59b" x="46.965625" y="128.762925" style="stroke: #000000; stroke-width: 0.8"/>
      </g>
     </g>
     <g id="text_11">
      <!-- 60 -->
      <g transform="translate(27.240625 132.562144) scale(0.1 -0.1)">
       <use xlink:href="#DejaVuSans-36"/>
       <use xlink:href="#DejaVuSans-30" x="63.623047"/>
      </g>
     </g>
    </g>
    <g id="ytick_5">
     <g id="line2d_21">
      <path d="M 46.965625 75.540525 
L 404.085625 75.540525 
" clip-path="url(#p3bb8e35533)" style="fill: none; stroke: #b0b0b0; stroke-width: 0.8; stroke-linecap: square"/>
     </g>
     <g id="line2d_22">
      <g>
       <use xlink:href="#m05f0cce59b" x="46.965625" y="75.540525" style="stroke: #000000; stroke-width: 0.8"/>
      </g>
     </g>
     <g id="text_12">
      <!-- 80 -->
      <g transform="translate(27.240625 79.339744) scale(0.1 -0.1)">
       <use xlink:href="#DejaVuSans-38"/>
       <use xlink:href="#DejaVuSans-30" x="63.623047"/>
      </g>
     </g>
    </g>
    <g id="ytick_6">
     <g id="line2d_23">
      <path d="M 46.965625 22.318125 
L 404.085625 22.318125 
" clip-path="url(#p3bb8e35533)" style="fill: none; stroke: #b0b0b0; stroke-width: 0.8; stroke-linecap: square"/>
     </g>
     <g id="line2d_24">
      <g>
       <use xlink:href="#m05f0cce59b" x="46.965625" y="22.318125" style="stroke: #000000; stroke-width: 0.8"/>
      </g>
     </g>
     <g id="text_13">
      <!-- 100 -->
      <g transform="translate(20.878125 26.117344) scale(0.1 -0.1)">
       <use xlink:href="#DejaVuSans-31"/>
       <use xlink:href="#DejaVuSans-30" x="63.623047"/>
       <use xlink:href="#DejaVuSans-30" x="127.246094"/>
      </g>
     </g>
    </g>
    <g id="text_14">
     <!-- Proportion -->
     <g transform="translate(14.798438 181.170219) rotate(-90) scale(0.1 -0.1)">
      <defs>
       <path id="DejaVuSans-50" d="M 1259 4147 
L 1259 2394 
L 2053 2394 
Q 2494 2394 2734 2622 
Q 2975 2850 2975 3272 
Q 2975 3691 2734 3919 
Q 2494 4147 2053 4147 
L 1259 4147 
z
M 628 4666 
L 2053 4666 
Q 2838 4666 3239 4311 
Q 3641 3956 3641 3272 
Q 3641 2581 3239 2228 
Q 2838 1875 2053 1875 
L 1259 1875 
L 1259 0 
L 628 0 
L 628 4666 
z
" transform="scale(0.015625)"/>
      </defs>
      <use xlink:href="#DejaVuSans-50"/>
      <use xlink:href="#DejaVuSans-72" x="58.552734"/>
      <use xlink:href="#DejaVuSans-6f" x="97.416016"/>
      <use xlink:href="#DejaVuSans-70" x="158.597656"/>
      <use xlink:href="#DejaVuSans-6f" x="222.074219"/>
      <use xlink:href="#DejaVuSans-72" x="283.255859"/>
      <use xlink:href="#DejaVuSans-74" x="324.369141"/>
      <use xlink:href="#DejaVuSans-69" x="363.578125"/>
      <use xlink:href="#DejaVuSans-6f" x="391.361328"/>
      <use xlink:href="#DejaVuSans-6e" x="452.542969"/>
     </g>
    </g>
   </g>
   <g id="line2d_25">
    <path d="M 387.852898 22.318125 
L 384.606352 23.62417 
L 381.359807 27.285378 
L 378.113261 29.554898 
L 374.866716 31.11787 
L 371.62017 32.852126 
L 368.373625 34.265224 
L 365.12708 35.207289 
L 361.880534 36.149355 
L 358.633989 36.791672 
L 355.387443 37.776558 
L 352.140898 38.397465 
L 348.894352 39.318119 
L 345.647807 40.0889 
L 342.401261 40.83827 
L 339.154716 41.758924 
L 335.90817 42.572526 
L 332.661625 43.428949 
L 329.41508 44.328193 
L 326.168534 45.141795 
L 322.921989 46.08386 
L 319.675443 47.025925 
L 316.428898 48.053633 
L 313.182352 49.252625 
L 309.935807 50.451617 
L 306.689261 51.265218 
L 303.442716 52.4428 
L 300.19617 53.406276 
L 296.949625 54.583857 
L 293.70308 55.654386 
L 290.456534 56.617861 
L 287.209989 57.624158 
L 283.963443 58.80174 
L 280.716898 59.55111 
L 277.470352 60.600228 
L 274.223807 62.034736 
L 270.977261 63.383602 
L 267.730716 64.646826 
L 264.48417 65.845818 
L 261.237625 67.023399 
L 257.99108 68.393676 
L 254.744534 69.828184 
L 251.497989 71.284103 
L 248.251443 72.825664 
L 245.004898 74.238762 
L 241.758352 75.973019 
L 238.511807 77.664454 
L 235.265261 79.484352 
L 232.018716 81.325662 
L 228.77217 83.50954 
L 225.525625 85.457902 
L 222.27908 87.277801 
L 219.032534 89.11911 
L 215.785989 90.831956 
L 212.539443 93.401224 
L 209.292898 95.563692 
L 206.046352 98.132961 
L 202.799807 101.216083 
L 199.553261 103.656888 
L 196.306716 106.418852 
L 193.06017 108.838247 
L 189.813625 112.007011 
L 186.56708 114.469227 
L 183.320534 117.081317 
L 180.073989 120.592651 
L 176.827443 123.761415 
L 173.580898 126.694664 
L 170.334352 130.163176 
L 167.087807 133.845795 
L 163.841261 137.485592 
L 160.594716 141.211032 
L 157.34817 145.25763 
L 154.101625 148.704732 
L 150.85508 153.286594 
L 147.608534 157.24755 
L 144.361989 161.636717 
L 141.115443 165.297925 
L 137.868898 169.879788 
L 134.622352 174.333187 
L 131.375807 178.850817 
L 128.129261 183.411269 
L 124.882716 188.121595 
L 121.63617 192.553583 
L 118.389625 195.529653 
L 115.14308 201.05358 
L 111.896534 204.950305 
L 108.649989 208.483049 
L 105.403443 214.049798 
L 102.156898 220.901181 
L 98.910352 224.712263 
L 95.663807 229.46541 
L 92.417261 234.925105 
L 89.170716 239.978 
L 85.92417 243.896135 
L 82.677625 250.726108 
L 79.43108 255.67195 
L 76.184534 259.911243 
L 72.937989 267.29789 
L 69.691443 272.457838 
L 66.444898 278.045998 
L 63.198352 284.190832 
" clip-path="url(#p3bb8e35533)" style="fill: none; stroke: #1f77b4; stroke-width: 1.5; stroke-linecap: square"/>
   </g>
   <g id="line2d_26">
    <path d="M 387.852898 22.318125 
L 384.606352 23.431475 
L 381.359807 24.801751 
L 378.113261 26.300491 
L 374.866716 28.441549 
L 371.62017 30.454142 
L 368.373625 32.766484 
L 365.12708 35.036005 
L 361.880534 37.797969 
L 358.633989 39.70351 
L 355.387443 42.529705 
L 352.140898 44.734994 
L 348.894352 48.417612 
L 345.647807 49.338267 
L 342.401261 51.436503 
L 339.154716 53.748845 
L 335.90817 56.767735 
L 332.661625 59.080077 
L 329.41508 61.542293 
L 326.168534 63.833224 
L 322.921989 66.830704 
L 319.675443 68.329444 
L 316.428898 70.598965 
L 313.182352 72.975538 
L 309.935807 75.138006 
L 306.689261 77.193421 
L 303.442716 78.949088 
L 300.19617 79.976796 
L 296.949625 84.066215 
L 293.70308 85.75765 
L 290.456534 88.262687 
L 287.209989 90.703492 
L 283.963443 92.309285 
L 280.716898 95.028428 
L 277.470352 97.469233 
L 274.223807 101.280315 
L 270.977261 102.629181 
L 267.730716 105.284092 
L 264.48417 108.088877 
L 261.237625 111.086357 
L 257.99108 113.933963 
L 254.744534 116.888622 
L 251.497989 120.078797 
L 248.251443 123.954111 
L 245.004898 127.379802 
L 241.758352 131.961664 
L 238.511807 135.109019 
L 235.265261 138.705995 
L 232.018716 141.660654 
L 228.77217 144.465439 
L 222.27908 146.906244 
L 219.032534 160.823116 
L 215.785989 162.086339 
L 212.539443 164.398681 
L 209.292898 168.166942 
L 206.046352 171.46417 
L 202.799807 175.59641 
L 199.553261 179.535956 
L 196.306716 182.362151 
L 193.06017 186.687087 
L 189.813625 190.134189 
L 186.56708 193.110258 
L 183.320534 195.979275 
L 180.073989 198.462901 
L 176.827443 201.78154 
L 173.580898 204.886073 
L 170.334352 208.183301 
L 167.087807 211.566171 
L 163.841261 214.071208 
L 160.594716 217.197152 
L 157.34817 219.873473 
L 154.101625 222.785311 
L 150.85508 225.825612 
L 147.608534 227.773974 
L 144.361989 232.077499 
L 141.115443 232.784048 
L 137.868898 234.389841 
L 134.622352 236.488077 
L 131.375807 238.779008 
L 128.129261 240.791602 
L 124.882716 243.275229 
L 121.63617 244.923843 
L 118.389625 247.45029 
L 115.14308 249.976738 
L 111.896534 252.653059 
L 108.649989 254.815527 
L 105.403443 258.027113 
L 102.156898 260.682024 
L 98.910352 262.994365 
L 95.663807 264.386053 
L 92.417261 268.625346 
L 89.170716 270.702171 
L 85.92417 273.314261 
L 82.677625 275.562371 
L 79.43108 278.174461 
L 76.184534 279.865896 
L 72.937989 282.392344 
L 69.691443 284.1266 
L 66.444898 285.710982 
L 63.198352 287.209722 
" clip-path="url(#p3bb8e35533)" style="fill: none; stroke: #ff7f0e; stroke-width: 1.5; stroke-linecap: square"/>
   </g>
   <g id="line2d_27">
    <path d="M 387.852898 22.318125 
L 384.606352 23.581349 
L 381.359807 27.242557 
L 378.113261 29.554898 
L 374.866716 31.075049 
L 371.62017 32.852126 
L 368.373625 34.329456 
L 365.12708 35.185879 
L 361.880534 36.213586 
L 358.633989 36.941546 
L 355.387443 37.755147 
L 352.140898 38.632981 
L 348.894352 39.211066 
L 345.647807 40.153132 
L 342.401261 40.988144 
L 339.154716 41.60905 
L 335.90817 42.636758 
L 332.661625 43.428949 
L 329.41508 44.178319 
L 326.168534 45.120384 
L 322.921989 46.08386 
L 319.675443 47.025925 
L 316.428898 48.032222 
L 313.182352 49.316856 
L 309.935807 50.430206 
L 306.689261 51.564966 
L 303.442716 52.421389 
L 300.19617 53.342044 
L 296.949625 54.262698 
L 293.70308 55.376048 
L 290.456534 56.467987 
L 287.209989 57.495695 
L 283.963443 58.223654 
L 280.716898 59.272772 
L 277.470352 60.66446 
L 274.223807 62.013326 
L 270.977261 63.062444 
L 267.730716 64.240025 
L 264.48417 65.781586 
L 261.237625 66.937757 
L 257.99108 68.286623 
L 254.744534 69.6569 
L 251.497989 71.134229 
L 248.251443 72.547327 
L 245.004898 74.024656 
L 241.758352 76.101482 
L 238.511807 77.600222 
L 235.265261 79.569995 
L 232.018716 81.903747 
L 228.77217 83.50954 
L 225.525625 85.39367 
L 222.27908 87.106516 
L 219.032534 89.183342 
L 215.785989 91.00324 
L 212.539443 93.058655 
L 209.292898 95.606513 
L 206.046352 98.47553 
L 202.799807 100.894924 
L 199.553261 103.549835 
L 196.306716 106.226157 
L 193.06017 108.666962 
L 189.813625 111.685853 
L 186.56708 114.319353 
L 183.320534 117.295423 
L 180.073989 120.271492 
L 176.827443 123.675773 
L 173.580898 127.015822 
L 170.334352 130.205998 
L 167.087807 133.802974 
L 163.841261 137.571234 
L 160.594716 141.211032 
L 157.34817 145.043524 
L 154.101625 148.983069 
L 150.85508 152.794151 
L 147.608534 157.376013 
L 144.361989 161.615307 
L 141.115443 165.811779 
L 137.868898 170.286588 
L 134.622352 174.07626 
L 131.375807 178.765175 
L 128.129261 182.983058 
L 124.882716 187.415046 
L 121.63617 191.975498 
L 118.389625 196.214791 
L 115.14308 200.603958 
L 111.896534 205.250053 
L 108.649989 209.617809 
L 105.403443 215.098916 
L 102.156898 219.01705 
L 98.910352 224.262641 
L 95.663807 229.080019 
L 92.417261 233.640471 
L 89.170716 239.635431 
L 85.92417 244.81679 
L 82.677625 250.340717 
L 79.43108 255.907466 
L 76.184534 261.752552 
L 72.937989 267.875976 
L 69.691443 273.549777 
L 66.444898 279.030884 
L 63.198352 285.26136 
" clip-path="url(#p3bb8e35533)" style="fill: none; stroke: #2ca02c; stroke-width: 1.5; stroke-linecap: square"/>
   </g>
   <g id="line2d_28">
    <path d="M 387.852898 22.318125 
L 384.606352 23.64558 
L 381.359807 26.25767 
L 378.113261 28.933992 
L 374.866716 31.50326 
L 371.62017 34.265224 
L 368.373625 36.791672 
L 365.12708 39.33953 
L 361.880534 41.908798 
L 358.633989 44.478067 
L 355.387443 47.368494 
L 352.140898 50.044816 
L 348.894352 52.785369 
L 345.647807 55.097711 
L 342.401261 57.281589 
L 339.154716 60.064964 
L 335.90817 62.955391 
L 332.661625 65.460428 
L 329.41508 68.17957 
L 326.168534 71.219872 
L 322.921989 73.382339 
L 319.675443 76.272767 
L 316.428898 78.949088 
L 313.182352 81.603999 
L 309.935807 83.852109 
L 306.689261 86.656894 
L 303.442716 89.333216 
L 300.19617 92.052358 
L 296.949625 94.664448 
L 293.70308 97.190895 
L 290.456534 99.802985 
L 287.209989 102.415075 
L 283.963443 105.262681 
L 280.716898 108.067466 
L 277.470352 110.786609 
L 274.223807 113.548573 
L 270.977261 116.439 
L 267.730716 119.0725 
L 264.48417 121.877285 
L 261.237625 124.575017 
L 257.99108 126.587611 
L 254.744534 129.114058 
L 251.497989 131.661916 
L 248.251443 134.145543 
L 245.004898 136.457885 
L 241.758352 139.198438 
L 238.511807 141.767706 
L 235.265261 144.808008 
L 232.018716 147.612793 
L 228.77217 149.967956 
L 225.525625 152.622866 
L 222.27908 155.277777 
L 219.032534 157.932688 
L 215.785989 160.523368 
L 212.539443 163.199689 
L 209.292898 165.619084 
L 206.046352 168.316816 
L 202.799807 170.843263 
L 199.553261 173.690869 
L 196.306716 176.773992 
L 193.06017 179.643008 
L 189.813625 182.255098 
L 186.56708 184.760135 
L 183.320534 187.971721 
L 180.073989 190.605221 
L 176.827443 193.302953 
L 173.580898 195.850811 
L 170.334352 198.505722 
L 167.087807 201.074991 
L 163.841261 204.093882 
L 160.594716 206.64174 
L 157.34817 209.339472 
L 154.101625 211.844509 
L 150.85508 214.820578 
L 147.608534 217.582542 
L 144.361989 220.151811 
L 141.115443 222.656848 
L 137.868898 225.226116 
L 134.622352 227.666922 
L 131.375807 230.257601 
L 128.129261 233.319313 
L 124.882716 235.888581 
L 121.63617 238.736187 
L 118.389625 241.027118 
L 115.14308 243.31805 
L 111.896534 246.358351 
L 108.649989 248.58505 
L 105.403443 251.111498 
L 102.156898 254.216031 
L 98.910352 256.7853 
L 95.663807 259.333158 
L 92.417261 262.137943 
L 89.170716 265.135423 
L 85.92417 268.368419 
L 82.677625 271.151793 
L 79.43108 273.870936 
L 76.184534 276.440205 
L 72.937989 279.116526 
L 69.691443 281.685795 
L 66.444898 284.597633 
L 63.198352 287.338186 
" clip-path="url(#p3bb8e35533)" style="fill: none; stroke: #d62728; stroke-width: 1.5; stroke-linecap: square"/>
   </g>
   <g id="patch_3">
    <path d="M 46.965625 288.430125 
L 46.965625 22.318125 
" style="fill: none; stroke: #000000; stroke-width: 0.8; stroke-linejoin: miter; stroke-linecap: square"/>
   </g>
   <g id="patch_4">
    <path d="M 404.085625 288.430125 
L 404.085625 22.318125 
" style="fill: none; stroke: #000000; stroke-width: 0.8; stroke-linejoin: miter; stroke-linecap: square"/>
   </g>
   <g id="patch_5">
    <path d="M 46.965625 288.430125 
L 404.085625 288.430125 
" style="fill: none; stroke: #000000; stroke-width: 0.8; stroke-linejoin: miter; stroke-linecap: square"/>
   </g>
   <g id="patch_6">
    <path d="M 46.965625 22.318125 
L 404.085625 22.318125 
" style="fill: none; stroke: #000000; stroke-width: 0.8; stroke-linejoin: miter; stroke-linecap: square"/>
   </g>
   <g id="text_15">
    <!-- Cumulative % of goals -->
    <g transform="translate(158.125938 16.318125) scale(0.12 -0.12)">
     <defs>
      <path id="DejaVuSans-43" d="M 4122 4306 
L 4122 3641 
Q 3803 3938 3442 4084 
Q 3081 4231 2675 4231 
Q 1875 4231 1450 3742 
Q 1025 3253 1025 2328 
Q 1025 1406 1450 917 
Q 1875 428 2675 428 
Q 3081 428 3442 575 
Q 3803 722 4122 1019 
L 4122 359 
Q 3791 134 3420 21 
Q 3050 -91 2638 -91 
Q 1578 -91 968 557 
Q 359 1206 359 2328 
Q 359 3453 968 4101 
Q 1578 4750 2638 4750 
Q 3056 4750 3426 4639 
Q 3797 4528 4122 4306 
z
" transform="scale(0.015625)"/>
      <path id="DejaVuSans-75" d="M 544 1381 
L 544 3500 
L 1119 3500 
L 1119 1403 
Q 1119 906 1312 657 
Q 1506 409 1894 409 
Q 2359 409 2629 706 
Q 2900 1003 2900 1516 
L 2900 3500 
L 3475 3500 
L 3475 0 
L 2900 0 
L 2900 538 
Q 2691 219 2414 64 
Q 2138 -91 1772 -91 
Q 1169 -91 856 284 
Q 544 659 544 1381 
z
M 1991 3584 
L 1991 3584 
z
" transform="scale(0.015625)"/>
      <path id="DejaVuSans-76" d="M 191 3500 
L 800 3500 
L 1894 563 
L 2988 3500 
L 3597 3500 
L 2284 0 
L 1503 0 
L 191 3500 
z
" transform="scale(0.015625)"/>
      <path id="DejaVuSans-25" d="M 4653 2053 
Q 4381 2053 4226 1822 
Q 4072 1591 4072 1178 
Q 4072 772 4226 539 
Q 4381 306 4653 306 
Q 4919 306 5073 539 
Q 5228 772 5228 1178 
Q 5228 1588 5073 1820 
Q 4919 2053 4653 2053 
z
M 4653 2450 
Q 5147 2450 5437 2106 
Q 5728 1763 5728 1178 
Q 5728 594 5436 251 
Q 5144 -91 4653 -91 
Q 4153 -91 3862 251 
Q 3572 594 3572 1178 
Q 3572 1766 3864 2108 
Q 4156 2450 4653 2450 
z
M 1428 4353 
Q 1159 4353 1004 4120 
Q 850 3888 850 3481 
Q 850 3069 1003 2837 
Q 1156 2606 1428 2606 
Q 1700 2606 1854 2837 
Q 2009 3069 2009 3481 
Q 2009 3884 1853 4118 
Q 1697 4353 1428 4353 
z
M 4250 4750 
L 4750 4750 
L 1831 -91 
L 1331 -91 
L 4250 4750 
z
M 1428 4750 
Q 1922 4750 2215 4408 
Q 2509 4066 2509 3481 
Q 2509 2891 2217 2550 
Q 1925 2209 1428 2209 
Q 931 2209 642 2551 
Q 353 2894 353 3481 
Q 353 4063 643 4406 
Q 934 4750 1428 4750 
z
" transform="scale(0.015625)"/>
      <path id="DejaVuSans-66" d="M 2375 4863 
L 2375 4384 
L 1825 4384 
Q 1516 4384 1395 4259 
Q 1275 4134 1275 3809 
L 1275 3500 
L 2222 3500 
L 2222 3053 
L 1275 3053 
L 1275 0 
L 697 0 
L 697 3053 
L 147 3053 
L 147 3500 
L 697 3500 
L 697 3744 
Q 697 4328 969 4595 
Q 1241 4863 1831 4863 
L 2375 4863 
z
" transform="scale(0.015625)"/>
      <path id="DejaVuSans-67" d="M 2906 1791 
Q 2906 2416 2648 2759 
Q 2391 3103 1925 3103 
Q 1463 3103 1205 2759 
Q 947 2416 947 1791 
Q 947 1169 1205 825 
Q 1463 481 1925 481 
Q 2391 481 2648 825 
Q 2906 1169 2906 1791 
z
M 3481 434 
Q 3481 -459 3084 -895 
Q 2688 -1331 1869 -1331 
Q 1566 -1331 1297 -1286 
Q 1028 -1241 775 -1147 
L 775 -588 
Q 1028 -725 1275 -790 
Q 1522 -856 1778 -856 
Q 2344 -856 2625 -561 
Q 2906 -266 2906 331 
L 2906 616 
Q 2728 306 2450 153 
Q 2172 0 1784 0 
Q 1141 0 747 490 
Q 353 981 353 1791 
Q 353 2603 747 3093 
Q 1141 3584 1784 3584 
Q 2172 3584 2450 3431 
Q 2728 3278 2906 2969 
L 2906 3500 
L 3481 3500 
L 3481 434 
z
" transform="scale(0.015625)"/>
      <path id="DejaVuSans-73" d="M 2834 3397 
L 2834 2853 
Q 2591 2978 2328 3040 
Q 2066 3103 1784 3103 
Q 1356 3103 1142 2972 
Q 928 2841 928 2578 
Q 928 2378 1081 2264 
Q 1234 2150 1697 2047 
L 1894 2003 
Q 2506 1872 2764 1633 
Q 3022 1394 3022 966 
Q 3022 478 2636 193 
Q 2250 -91 1575 -91 
Q 1294 -91 989 -36 
Q 684 19 347 128 
L 347 722 
Q 666 556 975 473 
Q 1284 391 1588 391 
Q 1994 391 2212 530 
Q 2431 669 2431 922 
Q 2431 1156 2273 1281 
Q 2116 1406 1581 1522 
L 1381 1569 
Q 847 1681 609 1914 
Q 372 2147 372 2553 
Q 372 3047 722 3315 
Q 1072 3584 1716 3584 
Q 2034 3584 2315 3537 
Q 2597 3491 2834 3397 
z
" transform="scale(0.015625)"/>
     </defs>
     <use xlink:href="#DejaVuSans-43"/>
     <use xlink:href="#DejaVuSans-75" x="69.824219"/>
     <use xlink:href="#DejaVuSans-6d" x="133.203125"/>
     <use xlink:href="#DejaVuSans-75" x="230.615234"/>
     <use xlink:href="#DejaVuSans-6c" x="293.994141"/>
     <use xlink:href="#DejaVuSans-61" x="321.777344"/>
     <use xlink:href="#DejaVuSans-74" x="383.056641"/>
     <use xlink:href="#DejaVuSans-69" x="422.265625"/>
     <use xlink:href="#DejaVuSans-76" x="450.048828"/>
     <use xlink:href="#DejaVuSans-65" x="509.228516"/>
     <use xlink:href="#DejaVuSans-20" x="570.751953"/>
     <use xlink:href="#DejaVuSans-25" x="602.539062"/>
     <use xlink:href="#DejaVuSans-20" x="697.558594"/>
     <use xlink:href="#DejaVuSans-6f" x="729.345703"/>
     <use xlink:href="#DejaVuSans-66" x="790.527344"/>
     <use xlink:href="#DejaVuSans-20" x="825.732422"/>
     <use xlink:href="#DejaVuSans-67" x="857.519531"/>
     <use xlink:href="#DejaVuSans-6f" x="920.996094"/>
     <use xlink:href="#DejaVuSans-61" x="982.177734"/>
     <use xlink:href="#DejaVuSans-6c" x="1043.457031"/>
     <use xlink:href="#DejaVuSans-73" x="1071.240234"/>
    </g>
   </g>
   <g id="legend_1">
    <g id="patch_7">
     <path d="M 53.965625 89.586875 
L 176.635938 89.586875 
Q 178.635938 89.586875 178.635938 87.586875 
L 178.635938 29.318125 
Q 178.635938 27.318125 176.635938 27.318125 
L 53.965625 27.318125 
Q 51.965625 27.318125 51.965625 29.318125 
L 51.965625 87.586875 
Q 51.965625 89.586875 53.965625 89.586875 
z
" style="fill: #ffffff; opacity: 0.8; stroke: #cccccc; stroke-linejoin: miter"/>
    </g>
    <g id="line2d_29">
     <path d="M 55.965625 35.416562 
L 65.965625 35.416562 
L 75.965625 35.416562 
" style="fill: none; stroke: #1f77b4; stroke-width: 1.5; stroke-linecap: square"/>
    </g>
    <g id="text_16">
     <!-- distance -->
     <g transform="translate(83.965625 38.916562) scale(0.1 -0.1)">
      <use xlink:href="#DejaVuSans-64"/>
      <use xlink:href="#DejaVuSans-69" x="63.476562"/>
      <use xlink:href="#DejaVuSans-73" x="91.259766"/>
      <use xlink:href="#DejaVuSans-74" x="143.359375"/>
      <use xlink:href="#DejaVuSans-61" x="182.568359"/>
      <use xlink:href="#DejaVuSans-6e" x="243.847656"/>
      <use xlink:href="#DejaVuSans-63" x="307.226562"/>
      <use xlink:href="#DejaVuSans-65" x="362.207031"/>
     </g>
    </g>
    <g id="line2d_30">
     <path d="M 55.965625 50.094688 
L 65.965625 50.094688 
L 75.965625 50.094688 
" style="fill: none; stroke: #ff7f0e; stroke-width: 1.5; stroke-linecap: square"/>
    </g>
    <g id="text_17">
     <!-- angle -->
     <g transform="translate(83.965625 53.594688) scale(0.1 -0.1)">
      <use xlink:href="#DejaVuSans-61"/>
      <use xlink:href="#DejaVuSans-6e" x="61.279297"/>
      <use xlink:href="#DejaVuSans-67" x="124.658203"/>
      <use xlink:href="#DejaVuSans-6c" x="188.134766"/>
      <use xlink:href="#DejaVuSans-65" x="215.917969"/>
     </g>
    </g>
    <g id="line2d_31">
     <path d="M 55.965625 64.772812 
L 65.965625 64.772812 
L 75.965625 64.772812 
" style="fill: none; stroke: #2ca02c; stroke-width: 1.5; stroke-linecap: square"/>
    </g>
    <g id="text_18">
     <!-- distance_angle -->
     <g transform="translate(83.965625 68.272812) scale(0.1 -0.1)">
      <defs>
       <path id="DejaVuSans-5f" d="M 3263 -1063 
L 3263 -1509 
L -63 -1509 
L -63 -1063 
L 3263 -1063 
z
" transform="scale(0.015625)"/>
      </defs>
      <use xlink:href="#DejaVuSans-64"/>
      <use xlink:href="#DejaVuSans-69" x="63.476562"/>
      <use xlink:href="#DejaVuSans-73" x="91.259766"/>
      <use xlink:href="#DejaVuSans-74" x="143.359375"/>
      <use xlink:href="#DejaVuSans-61" x="182.568359"/>
      <use xlink:href="#DejaVuSans-6e" x="243.847656"/>
      <use xlink:href="#DejaVuSans-63" x="307.226562"/>
      <use xlink:href="#DejaVuSans-65" x="362.207031"/>
      <use xlink:href="#DejaVuSans-5f" x="423.730469"/>
      <use xlink:href="#DejaVuSans-61" x="473.730469"/>
      <use xlink:href="#DejaVuSans-6e" x="535.009766"/>
      <use xlink:href="#DejaVuSans-67" x="598.388672"/>
      <use xlink:href="#DejaVuSans-6c" x="661.865234"/>
      <use xlink:href="#DejaVuSans-65" x="689.648438"/>
     </g>
    </g>
    <g id="line2d_32">
     <path d="M 55.965625 79.729062 
L 65.965625 79.729062 
L 75.965625 79.729062 
" style="fill: none; stroke: #d62728; stroke-width: 1.5; stroke-linecap: square"/>
    </g>
    <g id="text_19">
     <!-- random_base_line -->
     <g transform="translate(83.965625 83.229062) scale(0.1 -0.1)">
      <use xlink:href="#DejaVuSans-72"/>
      <use xlink:href="#DejaVuSans-61" x="41.113281"/>
      <use xlink:href="#DejaVuSans-6e" x="102.392578"/>
      <use xlink:href="#DejaVuSans-64" x="165.771484"/>
      <use xlink:href="#DejaVuSans-6f" x="229.248047"/>
      <use xlink:href="#DejaVuSans-6d" x="290.429688"/>
      <use xlink:href="#DejaVuSans-5f" x="387.841797"/>
      <use xlink:href="#DejaVuSans-62" x="437.841797"/>
      <use xlink:href="#DejaVuSans-61" x="501.318359"/>
      <use xlink:href="#DejaVuSans-73" x="562.597656"/>
      <use xlink:href="#DejaVuSans-65" x="614.697266"/>
      <use xlink:href="#DejaVuSans-5f" x="676.220703"/>
      <use xlink:href="#DejaVuSans-6c" x="726.220703"/>
      <use xlink:href="#DejaVuSans-69" x="754.003906"/>
      <use xlink:href="#DejaVuSans-6e" x="781.787109"/>
      <use xlink:href="#DejaVuSans-65" x="845.166016"/>
     </g>
    </g>
   </g>
  </g>
 </g>
 <defs>
  <clipPath id="p3bb8e35533">
   <rect x="46.965625" y="22.318125" width="357.12" height="266.112"/>
  </clipPath>
 </defs>
</svg>
