<?xml version="1.0" encoding="utf-8" standalone="no"?>
<!DOCTYPE svg PUBLIC "-//W3C//DTD SVG 1.1//EN"
  "http://www.w3.org/Graphics/SVG/1.1/DTD/svg11.dtd">
<svg xmlns:xlink="http://www.w3.org/1999/xlink" width="411.285625pt" height="325.986375pt" viewBox="0 0 411.285625 325.986375" xmlns="http://www.w3.org/2000/svg" version="1.1">
 <metadata>
  <rdf:RDF xmlns:dc="http://purl.org/dc/elements/1.1/" xmlns:cc="http://creativecommons.org/ns#" xmlns:rdf="http://www.w3.org/1999/02/22-rdf-syntax-ns#">
   <cc:Work>
    <dc:type rdf:resource="http://purl.org/dc/dcmitype/StillImage"/>
    <dc:date>2022-11-23T21:22:02.985239</dc:date>
    <dc:format>image/svg+xml</dc:format>
    <dc:creator>
     <cc:Agent>
      <dc:title>Matplotlib v3.6.0, https://matplotlib.org/</dc:title>
     </cc:Agent>
    </dc:creator>
   </cc:Work>
  </rdf:RDF>
 </metadata>
 <defs>
  <style type="text/css">*{stroke-linejoin: round; stroke-linecap: butt}</style>
 </defs>
 <g id="figure_1">
  <g id="patch_1">
   <path d="M 0 325.986375 
L 411.285625 325.986375 
L 411.285625 0 
L 0 0 
z
" style="fill: #ffffff"/>
  </g>
  <g id="axes_1">
   <g id="patch_2">
    <path d="M 46.965625 288.430125 
L 404.085625 288.430125 
L 404.085625 22.318125 
L 46.965625 22.318125 
z
" style="fill: #ffffff"/>
   </g>
   <g id="matplotlib.axis_1">
    <g id="xtick_1">
     <g id="line2d_1">
      <path d="M 387.852898 288.430125 
L 387.852898 22.318125 
" clip-path="url(#pab6d2ce690)" style="fill: none; stroke: #b0b0b0; stroke-width: 0.8; stroke-linecap: square"/>
     </g>
     <g id="line2d_2">
      <defs>
       <path id="ma3be399750" d="M 0 0 
L 0 3.5 
" style="stroke: #000000; stroke-width: 0.8"/>
      </defs>
      <g>
       <use xlink:href="#ma3be399750" x="387.852898" y="288.430125" style="stroke: #000000; stroke-width: 0.8"/>
      </g>
     </g>
     <g id="text_1">
      <!-- 0 -->
      <g transform="translate(384.671648 303.028562) scale(0.1 -0.1)">
       <defs>
        <path id="DejaVuSans-30" d="M 2034 4250 
Q 1547 4250 1301 3770 
Q 1056 3291 1056 2328 
Q 1056 1369 1301 889 
Q 1547 409 2034 409 
Q 2525 409 2770 889 
Q 3016 1369 3016 2328 
Q 3016 3291 2770 3770 
Q 2525 4250 2034 4250 
z
M 2034 4750 
Q 2819 4750 3233 4129 
Q 3647 3509 3647 2328 
Q 3647 1150 3233 529 
Q 2819 -91 2034 -91 
Q 1250 -91 836 529 
Q 422 1150 422 2328 
Q 422 3509 836 4129 
Q 1250 4750 2034 4750 
z
" transform="scale(0.015625)"/>
       </defs>
       <use xlink:href="#DejaVuSans-30"/>
      </g>
     </g>
    </g>
    <g id="xtick_2">
     <g id="line2d_3">
      <path d="M 322.921989 288.430125 
L 322.921989 22.318125 
" clip-path="url(#pab6d2ce690)" style="fill: none; stroke: #b0b0b0; stroke-width: 0.8; stroke-linecap: square"/>
     </g>
     <g id="line2d_4">
      <g>
       <use xlink:href="#ma3be399750" x="322.921989" y="288.430125" style="stroke: #000000; stroke-width: 0.8"/>
      </g>
     </g>
     <g id="text_2">
      <!-- 20 -->
      <g transform="translate(316.559489 303.028562) scale(0.1 -0.1)">
       <defs>
        <path id="DejaVuSans-32" d="M 1228 531 
L 3431 531 
L 3431 0 
L 469 0 
L 469 531 
Q 828 903 1448 1529 
Q 2069 2156 2228 2338 
Q 2531 2678 2651 2914 
Q 2772 3150 2772 3378 
Q 2772 3750 2511 3984 
Q 2250 4219 1831 4219 
Q 1534 4219 1204 4116 
Q 875 4013 500 3803 
L 500 4441 
Q 881 4594 1212 4672 
Q 1544 4750 1819 4750 
Q 2544 4750 2975 4387 
Q 3406 4025 3406 3419 
Q 3406 3131 3298 2873 
Q 3191 2616 2906 2266 
Q 2828 2175 2409 1742 
Q 1991 1309 1228 531 
z
" transform="scale(0.015625)"/>
       </defs>
       <use xlink:href="#DejaVuSans-32"/>
       <use xlink:href="#DejaVuSans-30" x="63.623047"/>
      </g>
     </g>
    </g>
    <g id="xtick_3">
     <g id="line2d_5">
      <path d="M 257.99108 288.430125 
L 257.99108 22.318125 
" clip-path="url(#pab6d2ce690)" style="fill: none; stroke: #b0b0b0; stroke-width: 0.8; stroke-linecap: square"/>
     </g>
     <g id="line2d_6">
      <g>
       <use xlink:href="#ma3be399750" x="257.99108" y="288.430125" style="stroke: #000000; stroke-width: 0.8"/>
      </g>
     </g>
     <g id="text_3">
      <!-- 40 -->
      <g transform="translate(251.62858 303.028562) scale(0.1 -0.1)">
       <defs>
        <path id="DejaVuSans-34" d="M 2419 4116 
L 825 1625 
L 2419 1625 
L 2419 4116 
z
M 2253 4666 
L 3047 4666 
L 3047 1625 
L 3713 1625 
L 3713 1100 
L 3047 1100 
L 3047 0 
L 2419 0 
L 2419 1100 
L 313 1100 
L 313 1709 
L 2253 4666 
z
" transform="scale(0.015625)"/>
       </defs>
       <use xlink:href="#DejaVuSans-34"/>
       <use xlink:href="#DejaVuSans-30" x="63.623047"/>
      </g>
     </g>
    </g>
    <g id="xtick_4">
     <g id="line2d_7">
      <path d="M 193.06017 288.430125 
L 193.06017 22.318125 
" clip-path="url(#pab6d2ce690)" style="fill: none; stroke: #b0b0b0; stroke-width: 0.8; stroke-linecap: square"/>
     </g>
     <g id="line2d_8">
      <g>
       <use xlink:href="#ma3be399750" x="193.06017" y="288.430125" style="stroke: #000000; stroke-width: 0.8"/>
      </g>
     </g>
     <g id="text_4">
      <!-- 60 -->
      <g transform="translate(186.69767 303.028562) scale(0.1 -0.1)">
       <defs>
        <path id="DejaVuSans-36" d="M 2113 2584 
Q 1688 2584 1439 2293 
Q 1191 2003 1191 1497 
Q 1191 994 1439 701 
Q 1688 409 2113 409 
Q 2538 409 2786 701 
Q 3034 994 3034 1497 
Q 3034 2003 2786 2293 
Q 2538 2584 2113 2584 
z
M 3366 4563 
L 3366 3988 
Q 3128 4100 2886 4159 
Q 2644 4219 2406 4219 
Q 1781 4219 1451 3797 
Q 1122 3375 1075 2522 
Q 1259 2794 1537 2939 
Q 1816 3084 2150 3084 
Q 2853 3084 3261 2657 
Q 3669 2231 3669 1497 
Q 3669 778 3244 343 
Q 2819 -91 2113 -91 
Q 1303 -91 875 529 
Q 447 1150 447 2328 
Q 447 3434 972 4092 
Q 1497 4750 2381 4750 
Q 2619 4750 2861 4703 
Q 3103 4656 3366 4563 
z
" transform="scale(0.015625)"/>
       </defs>
       <use xlink:href="#DejaVuSans-36"/>
       <use xlink:href="#DejaVuSans-30" x="63.623047"/>
      </g>
     </g>
    </g>
    <g id="xtick_5">
     <g id="line2d_9">
      <path d="M 128.129261 288.430125 
L 128.129261 22.318125 
" clip-path="url(#pab6d2ce690)" style="fill: none; stroke: #b0b0b0; stroke-width: 0.8; stroke-linecap: square"/>
     </g>
     <g id="line2d_10">
      <g>
       <use xlink:href="#ma3be399750" x="128.129261" y="288.430125" style="stroke: #000000; stroke-width: 0.8"/>
      </g>
     </g>
     <g id="text_5">
      <!-- 80 -->
      <g transform="translate(121.766761 303.028562) scale(0.1 -0.1)">
       <defs>
        <path id="DejaVuSans-38" d="M 2034 2216 
Q 1584 2216 1326 1975 
Q 1069 1734 1069 1313 
Q 1069 891 1326 650 
Q 1584 409 2034 409 
Q 2484 409 2743 651 
Q 3003 894 3003 1313 
Q 3003 1734 2745 1975 
Q 2488 2216 2034 2216 
z
M 1403 2484 
Q 997 2584 770 2862 
Q 544 3141 544 3541 
Q 544 4100 942 4425 
Q 1341 4750 2034 4750 
Q 2731 4750 3128 4425 
Q 3525 4100 3525 3541 
Q 3525 3141 3298 2862 
Q 3072 2584 2669 2484 
Q 3125 2378 3379 2068 
Q 3634 1759 3634 1313 
Q 3634 634 3220 271 
Q 2806 -91 2034 -91 
Q 1263 -91 848 271 
Q 434 634 434 1313 
Q 434 1759 690 2068 
Q 947 2378 1403 2484 
z
M 1172 3481 
Q 1172 3119 1398 2916 
Q 1625 2713 2034 2713 
Q 2441 2713 2670 2916 
Q 2900 3119 2900 3481 
Q 2900 3844 2670 4047 
Q 2441 4250 2034 4250 
Q 1625 4250 1398 4047 
Q 1172 3844 1172 3481 
z
" transform="scale(0.015625)"/>
       </defs>
       <use xlink:href="#DejaVuSans-38"/>
       <use xlink:href="#DejaVuSans-30" x="63.623047"/>
      </g>
     </g>
    </g>
    <g id="xtick_6">
     <g id="line2d_11">
      <path d="M 63.198352 288.430125 
L 63.198352 22.318125 
" clip-path="url(#pab6d2ce690)" style="fill: none; stroke: #b0b0b0; stroke-width: 0.8; stroke-linecap: square"/>
     </g>
     <g id="line2d_12">
      <g>
       <use xlink:href="#ma3be399750" x="63.198352" y="288.430125" style="stroke: #000000; stroke-width: 0.8"/>
      </g>
     </g>
     <g id="text_6">
      <!-- 100 -->
      <g transform="translate(53.654602 303.028562) scale(0.1 -0.1)">
       <defs>
        <path id="DejaVuSans-31" d="M 794 531 
L 1825 531 
L 1825 4091 
L 703 3866 
L 703 4441 
L 1819 4666 
L 2450 4666 
L 2450 531 
L 3481 531 
L 3481 0 
L 794 0 
L 794 531 
z
" transform="scale(0.015625)"/>
       </defs>
       <use xlink:href="#DejaVuSans-31"/>
       <use xlink:href="#DejaVuSans-30" x="63.623047"/>
       <use xlink:href="#DejaVuSans-30" x="127.246094"/>
      </g>
     </g>
    </g>
    <g id="text_7">
     <!-- Shot probablity model percentile -->
     <g transform="translate(143.536563 316.706687) scale(0.1 -0.1)">
      <defs>
       <path id="DejaVuSans-53" d="M 3425 4513 
L 3425 3897 
Q 3066 4069 2747 4153 
Q 2428 4238 2131 4238 
Q 1616 4238 1336 4038 
Q 1056 3838 1056 3469 
Q 1056 3159 1242 3001 
Q 1428 2844 1947 2747 
L 2328 2669 
Q 3034 2534 3370 2195 
Q 3706 1856 3706 1288 
Q 3706 609 3251 259 
Q 2797 -91 1919 -91 
Q 1588 -91 1214 -16 
Q 841 59 441 206 
L 441 856 
Q 825 641 1194 531 
Q 1563 422 1919 422 
Q 2459 422 2753 634 
Q 3047 847 3047 1241 
Q 3047 1584 2836 1778 
Q 2625 1972 2144 2069 
L 1759 2144 
Q 1053 2284 737 2584 
Q 422 2884 422 3419 
Q 422 4038 858 4394 
Q 1294 4750 2059 4750 
Q 2388 4750 2728 4690 
Q 3069 4631 3425 4513 
z
" transform="scale(0.015625)"/>
       <path id="DejaVuSans-68" d="M 3513 2113 
L 3513 0 
L 2938 0 
L 2938 2094 
Q 2938 2591 2744 2837 
Q 2550 3084 2163 3084 
Q 1697 3084 1428 2787 
Q 1159 2491 1159 1978 
L 1159 0 
L 581 0 
L 581 4863 
L 1159 4863 
L 1159 2956 
Q 1366 3272 1645 3428 
Q 1925 3584 2291 3584 
Q 2894 3584 3203 3211 
Q 3513 2838 3513 2113 
z
" transform="scale(0.015625)"/>
       <path id="DejaVuSans-6f" d="M 1959 3097 
Q 1497 3097 1228 2736 
Q 959 2375 959 1747 
Q 959 1119 1226 758 
Q 1494 397 1959 397 
Q 2419 397 2687 759 
Q 2956 1122 2956 1747 
Q 2956 2369 2687 2733 
Q 2419 3097 1959 3097 
z
M 1959 3584 
Q 2709 3584 3137 3096 
Q 3566 2609 3566 1747 
Q 3566 888 3137 398 
Q 2709 -91 1959 -91 
Q 1206 -91 779 398 
Q 353 888 353 1747 
Q 353 2609 779 3096 
Q 1206 3584 1959 3584 
z
" transform="scale(0.015625)"/>
       <path id="DejaVuSans-74" d="M 1172 4494 
L 1172 3500 
L 2356 3500 
L 2356 3053 
L 1172 3053 
L 1172 1153 
Q 1172 725 1289 603 
Q 1406 481 1766 481 
L 2356 481 
L 2356 0 
L 1766 0 
Q 1100 0 847 248 
Q 594 497 594 1153 
L 594 3053 
L 172 3053 
L 172 3500 
L 594 3500 
L 594 4494 
L 1172 4494 
z
" transform="scale(0.015625)"/>
       <path id="DejaVuSans-20" transform="scale(0.015625)"/>
       <path id="DejaVuSans-70" d="M 1159 525 
L 1159 -1331 
L 581 -1331 
L 581 3500 
L 1159 3500 
L 1159 2969 
Q 1341 3281 1617 3432 
Q 1894 3584 2278 3584 
Q 2916 3584 3314 3078 
Q 3713 2572 3713 1747 
Q 3713 922 3314 415 
Q 2916 -91 2278 -91 
Q 1894 -91 1617 61 
Q 1341 213 1159 525 
z
M 3116 1747 
Q 3116 2381 2855 2742 
Q 2594 3103 2138 3103 
Q 1681 3103 1420 2742 
Q 1159 2381 1159 1747 
Q 1159 1113 1420 752 
Q 1681 391 2138 391 
Q 2594 391 2855 752 
Q 3116 1113 3116 1747 
z
" transform="scale(0.015625)"/>
       <path id="DejaVuSans-72" d="M 2631 2963 
Q 2534 3019 2420 3045 
Q 2306 3072 2169 3072 
Q 1681 3072 1420 2755 
Q 1159 2438 1159 1844 
L 1159 0 
L 581 0 
L 581 3500 
L 1159 3500 
L 1159 2956 
Q 1341 3275 1631 3429 
Q 1922 3584 2338 3584 
Q 2397 3584 2469 3576 
Q 2541 3569 2628 3553 
L 2631 2963 
z
" transform="scale(0.015625)"/>
       <path id="DejaVuSans-62" d="M 3116 1747 
Q 3116 2381 2855 2742 
Q 2594 3103 2138 3103 
Q 1681 3103 1420 2742 
Q 1159 2381 1159 1747 
Q 1159 1113 1420 752 
Q 1681 391 2138 391 
Q 2594 391 2855 752 
Q 3116 1113 3116 1747 
z
M 1159 2969 
Q 1341 3281 1617 3432 
Q 1894 3584 2278 3584 
Q 2916 3584 3314 3078 
Q 3713 2572 3713 1747 
Q 3713 922 3314 415 
Q 2916 -91 2278 -91 
Q 1894 -91 1617 61 
Q 1341 213 1159 525 
L 1159 0 
L 581 0 
L 581 4863 
L 1159 4863 
L 1159 2969 
z
" transform="scale(0.015625)"/>
       <path id="DejaVuSans-61" d="M 2194 1759 
Q 1497 1759 1228 1600 
Q 959 1441 959 1056 
Q 959 750 1161 570 
Q 1363 391 1709 391 
Q 2188 391 2477 730 
Q 2766 1069 2766 1631 
L 2766 1759 
L 2194 1759 
z
M 3341 1997 
L 3341 0 
L 2766 0 
L 2766 531 
Q 2569 213 2275 61 
Q 1981 -91 1556 -91 
Q 1019 -91 701 211 
Q 384 513 384 1019 
Q 384 1609 779 1909 
Q 1175 2209 1959 2209 
L 2766 2209 
L 2766 2266 
Q 2766 2663 2505 2880 
Q 2244 3097 1772 3097 
Q 1472 3097 1187 3025 
Q 903 2953 641 2809 
L 641 3341 
Q 956 3463 1253 3523 
Q 1550 3584 1831 3584 
Q 2591 3584 2966 3190 
Q 3341 2797 3341 1997 
z
" transform="scale(0.015625)"/>
       <path id="DejaVuSans-6c" d="M 603 4863 
L 1178 4863 
L 1178 0 
L 603 0 
L 603 4863 
z
" transform="scale(0.015625)"/>
       <path id="DejaVuSans-69" d="M 603 3500 
L 1178 3500 
L 1178 0 
L 603 0 
L 603 3500 
z
M 603 4863 
L 1178 4863 
L 1178 4134 
L 603 4134 
L 603 4863 
z
" transform="scale(0.015625)"/>
       <path id="DejaVuSans-79" d="M 2059 -325 
Q 1816 -950 1584 -1140 
Q 1353 -1331 966 -1331 
L 506 -1331 
L 506 -850 
L 844 -850 
Q 1081 -850 1212 -737 
Q 1344 -625 1503 -206 
L 1606 56 
L 191 3500 
L 800 3500 
L 1894 763 
L 2988 3500 
L 3597 3500 
L 2059 -325 
z
" transform="scale(0.015625)"/>
       <path id="DejaVuSans-6d" d="M 3328 2828 
Q 3544 3216 3844 3400 
Q 4144 3584 4550 3584 
Q 5097 3584 5394 3201 
Q 5691 2819 5691 2113 
L 5691 0 
L 5113 0 
L 5113 2094 
Q 5113 2597 4934 2840 
Q 4756 3084 4391 3084 
Q 3944 3084 3684 2787 
Q 3425 2491 3425 1978 
L 3425 0 
L 2847 0 
L 2847 2094 
Q 2847 2600 2669 2842 
Q 2491 3084 2119 3084 
Q 1678 3084 1418 2786 
Q 1159 2488 1159 1978 
L 1159 0 
L 581 0 
L 581 3500 
L 1159 3500 
L 1159 2956 
Q 1356 3278 1631 3431 
Q 1906 3584 2284 3584 
Q 2666 3584 2933 3390 
Q 3200 3197 3328 2828 
z
" transform="scale(0.015625)"/>
       <path id="DejaVuSans-64" d="M 2906 2969 
L 2906 4863 
L 3481 4863 
L 3481 0 
L 2906 0 
L 2906 525 
Q 2725 213 2448 61 
Q 2172 -91 1784 -91 
Q 1150 -91 751 415 
Q 353 922 353 1747 
Q 353 2572 751 3078 
Q 1150 3584 1784 3584 
Q 2172 3584 2448 3432 
Q 2725 3281 2906 2969 
z
M 947 1747 
Q 947 1113 1208 752 
Q 1469 391 1925 391 
Q 2381 391 2643 752 
Q 2906 1113 2906 1747 
Q 2906 2381 2643 2742 
Q 2381 3103 1925 3103 
Q 1469 3103 1208 2742 
Q 947 2381 947 1747 
z
" transform="scale(0.015625)"/>
       <path id="DejaVuSans-65" d="M 3597 1894 
L 3597 1613 
L 953 1613 
Q 991 1019 1311 708 
Q 1631 397 2203 397 
Q 2534 397 2845 478 
Q 3156 559 3463 722 
L 3463 178 
Q 3153 47 2828 -22 
Q 2503 -91 2169 -91 
Q 1331 -91 842 396 
Q 353 884 353 1716 
Q 353 2575 817 3079 
Q 1281 3584 2069 3584 
Q 2775 3584 3186 3129 
Q 3597 2675 3597 1894 
z
M 3022 2063 
Q 3016 2534 2758 2815 
Q 2500 3097 2075 3097 
Q 1594 3097 1305 2825 
Q 1016 2553 972 2059 
L 3022 2063 
z
" transform="scale(0.015625)"/>
       <path id="DejaVuSans-63" d="M 3122 3366 
L 3122 2828 
Q 2878 2963 2633 3030 
Q 2388 3097 2138 3097 
Q 1578 3097 1268 2742 
Q 959 2388 959 1747 
Q 959 1106 1268 751 
Q 1578 397 2138 397 
Q 2388 397 2633 464 
Q 2878 531 3122 666 
L 3122 134 
Q 2881 22 2623 -34 
Q 2366 -91 2075 -91 
Q 1284 -91 818 406 
Q 353 903 353 1747 
Q 353 2603 823 3093 
Q 1294 3584 2113 3584 
Q 2378 3584 2631 3529 
Q 2884 3475 3122 3366 
z
" transform="scale(0.015625)"/>
       <path id="DejaVuSans-6e" d="M 3513 2113 
L 3513 0 
L 2938 0 
L 2938 2094 
Q 2938 2591 2744 2837 
Q 2550 3084 2163 3084 
Q 1697 3084 1428 2787 
Q 1159 2491 1159 1978 
L 1159 0 
L 581 0 
L 581 3500 
L 1159 3500 
L 1159 2956 
Q 1366 3272 1645 3428 
Q 1925 3584 2291 3584 
Q 2894 3584 3203 3211 
Q 3513 2838 3513 2113 
z
" transform="scale(0.015625)"/>
      </defs>
      <use xlink:href="#DejaVuSans-53"/>
      <use xlink:href="#DejaVuSans-68" x="63.476562"/>
      <use xlink:href="#DejaVuSans-6f" x="126.855469"/>
      <use xlink:href="#DejaVuSans-74" x="188.037109"/>
      <use xlink:href="#DejaVuSans-20" x="227.246094"/>
      <use xlink:href="#DejaVuSans-70" x="259.033203"/>
      <use xlink:href="#DejaVuSans-72" x="322.509766"/>
      <use xlink:href="#DejaVuSans-6f" x="361.373047"/>
      <use xlink:href="#DejaVuSans-62" x="422.554688"/>
      <use xlink:href="#DejaVuSans-61" x="486.03125"/>
      <use xlink:href="#DejaVuSans-62" x="547.310547"/>
      <use xlink:href="#DejaVuSans-6c" x="610.787109"/>
      <use xlink:href="#DejaVuSans-69" x="638.570312"/>
      <use xlink:href="#DejaVuSans-74" x="666.353516"/>
      <use xlink:href="#DejaVuSans-79" x="705.5625"/>
      <use xlink:href="#DejaVuSans-20" x="764.742188"/>
      <use xlink:href="#DejaVuSans-6d" x="796.529297"/>
      <use xlink:href="#DejaVuSans-6f" x="893.941406"/>
      <use xlink:href="#DejaVuSans-64" x="955.123047"/>
      <use xlink:href="#DejaVuSans-65" x="1018.599609"/>
      <use xlink:href="#DejaVuSans-6c" x="1080.123047"/>
      <use xlink:href="#DejaVuSans-20" x="1107.90625"/>
      <use xlink:href="#DejaVuSans-70" x="1139.693359"/>
      <use xlink:href="#DejaVuSans-65" x="1203.169922"/>
      <use xlink:href="#DejaVuSans-72" x="1264.693359"/>
      <use xlink:href="#DejaVuSans-63" x="1303.556641"/>
      <use xlink:href="#DejaVuSans-65" x="1358.537109"/>
      <use xlink:href="#DejaVuSans-6e" x="1420.060547"/>
      <use xlink:href="#DejaVuSans-74" x="1483.439453"/>
      <use xlink:href="#DejaVuSans-69" x="1522.648438"/>
      <use xlink:href="#DejaVuSans-6c" x="1550.431641"/>
      <use xlink:href="#DejaVuSans-65" x="1578.214844"/>
     </g>
    </g>
   </g>
   <g id="matplotlib.axis_2">
    <g id="ytick_1">
     <g id="line2d_13">
      <path d="M 46.965625 288.430125 
L 404.085625 288.430125 
" clip-path="url(#pab6d2ce690)" style="fill: none; stroke: #b0b0b0; stroke-width: 0.8; stroke-linecap: square"/>
     </g>
     <g id="line2d_14">
      <defs>
       <path id="m13162c722c" d="M 0 0 
L -3.5 0 
" style="stroke: #000000; stroke-width: 0.8"/>
      </defs>
      <g>
       <use xlink:href="#m13162c722c" x="46.965625" y="288.430125" style="stroke: #000000; stroke-width: 0.8"/>
      </g>
     </g>
     <g id="text_8">
      <!-- 0 -->
      <g transform="translate(33.603125 292.229344) scale(0.1 -0.1)">
       <use xlink:href="#DejaVuSans-30"/>
      </g>
     </g>
    </g>
    <g id="ytick_2">
     <g id="line2d_15">
      <path d="M 46.965625 235.207725 
L 404.085625 235.207725 
" clip-path="url(#pab6d2ce690)" style="fill: none; stroke: #b0b0b0; stroke-width: 0.8; stroke-linecap: square"/>
     </g>
     <g id="line2d_16">
      <g>
       <use xlink:href="#m13162c722c" x="46.965625" y="235.207725" style="stroke: #000000; stroke-width: 0.8"/>
      </g>
     </g>
     <g id="text_9">
      <!-- 20 -->
      <g transform="translate(27.240625 239.006944) scale(0.1 -0.1)">
       <use xlink:href="#DejaVuSans-32"/>
       <use xlink:href="#DejaVuSans-30" x="63.623047"/>
      </g>
     </g>
    </g>
    <g id="ytick_3">
     <g id="line2d_17">
      <path d="M 46.965625 181.985325 
L 404.085625 181.985325 
" clip-path="url(#pab6d2ce690)" style="fill: none; stroke: #b0b0b0; stroke-width: 0.8; stroke-linecap: square"/>
     </g>
     <g id="line2d_18">
      <g>
       <use xlink:href="#m13162c722c" x="46.965625" y="181.985325" style="stroke: #000000; stroke-width: 0.8"/>
      </g>
     </g>
     <g id="text_10">
      <!-- 40 -->
      <g transform="translate(27.240625 185.784544) scale(0.1 -0.1)">
       <use xlink:href="#DejaVuSans-34"/>
       <use xlink:href="#DejaVuSans-30" x="63.623047"/>
      </g>
     </g>
    </g>
    <g id="ytick_4">
     <g id="line2d_19">
      <path d="M 46.965625 128.762925 
L 404.085625 128.762925 
" clip-path="url(#pab6d2ce690)" style="fill: none; stroke: #b0b0b0; stroke-width: 0.8; stroke-linecap: square"/>
     </g>
     <g id="line2d_20">
      <g>
       <use xlink:href="#m13162c722c" x="46.965625" y="128.762925" style="stroke: #000000; stroke-width: 0.8"/>
      </g>
     </g>
     <g id="text_11">
      <!-- 60 -->
      <g transform="translate(27.240625 132.562144) scale(0.1 -0.1)">
       <use xlink:href="#DejaVuSans-36"/>
       <use xlink:href="#DejaVuSans-30" x="63.623047"/>
      </g>
     </g>
    </g>
    <g id="ytick_5">
     <g id="line2d_21">
      <path d="M 46.965625 75.540525 
L 404.085625 75.540525 
" clip-path="url(#pab6d2ce690)" style="fill: none; stroke: #b0b0b0; stroke-width: 0.8; stroke-linecap: square"/>
     </g>
     <g id="line2d_22">
      <g>
       <use xlink:href="#m13162c722c" x="46.965625" y="75.540525" style="stroke: #000000; stroke-width: 0.8"/>
      </g>
     </g>
     <g id="text_12">
      <!-- 80 -->
      <g transform="translate(27.240625 79.339744) scale(0.1 -0.1)">
       <use xlink:href="#DejaVuSans-38"/>
       <use xlink:href="#DejaVuSans-30" x="63.623047"/>
      </g>
     </g>
    </g>
    <g id="ytick_6">
     <g id="line2d_23">
      <path d="M 46.965625 22.318125 
L 404.085625 22.318125 
" clip-path="url(#pab6d2ce690)" style="fill: none; stroke: #b0b0b0; stroke-width: 0.8; stroke-linecap: square"/>
     </g>
     <g id="line2d_24">
      <g>
       <use xlink:href="#m13162c722c" x="46.965625" y="22.318125" style="stroke: #000000; stroke-width: 0.8"/>
      </g>
     </g>
     <g id="text_13">
      <!-- 100 -->
      <g transform="translate(20.878125 26.117344) scale(0.1 -0.1)">
       <use xlink:href="#DejaVuSans-31"/>
       <use xlink:href="#DejaVuSans-30" x="63.623047"/>
       <use xlink:href="#DejaVuSans-30" x="127.246094"/>
      </g>
     </g>
    </g>
    <g id="text_14">
     <!-- Proportion -->
     <g transform="translate(14.798438 181.170219) rotate(-90) scale(0.1 -0.1)">
      <defs>
       <path id="DejaVuSans-50" d="M 1259 4147 
L 1259 2394 
L 2053 2394 
Q 2494 2394 2734 2622 
Q 2975 2850 2975 3272 
Q 2975 3691 2734 3919 
Q 2494 4147 2053 4147 
L 1259 4147 
z
M 628 4666 
L 2053 4666 
Q 2838 4666 3239 4311 
Q 3641 3956 3641 3272 
Q 3641 2581 3239 2228 
Q 2838 1875 2053 1875 
L 1259 1875 
L 1259 0 
L 628 0 
L 628 4666 
z
" transform="scale(0.015625)"/>
      </defs>
      <use xlink:href="#DejaVuSans-50"/>
      <use xlink:href="#DejaVuSans-72" x="58.552734"/>
      <use xlink:href="#DejaVuSans-6f" x="97.416016"/>
      <use xlink:href="#DejaVuSans-70" x="158.597656"/>
      <use xlink:href="#DejaVuSans-6f" x="222.074219"/>
      <use xlink:href="#DejaVuSans-72" x="283.255859"/>
      <use xlink:href="#DejaVuSans-74" x="324.369141"/>
      <use xlink:href="#DejaVuSans-69" x="363.578125"/>
      <use xlink:href="#DejaVuSans-6f" x="391.361328"/>
      <use xlink:href="#DejaVuSans-6e" x="452.542969"/>
     </g>
    </g>
   </g>
   <g id="line2d_25">
    <path d="M 387.852898 22.318125 
L 384.606352 22.318125 
L 381.359807 22.750827 
L 378.113261 24.481637 
L 374.866716 24.481637 
L 371.62017 24.481637 
L 368.373625 25.779745 
L 365.12708 26.645149 
L 361.880534 27.077852 
L 358.633989 28.808662 
L 355.387443 30.539471 
L 352.140898 30.972174 
L 348.894352 34.001091 
L 345.647807 36.597305 
L 342.401261 37.46271 
L 339.154716 41.357032 
L 335.90817 41.789735 
L 332.661625 43.520545 
L 329.41508 45.684057 
L 326.168534 46.982164 
L 322.921989 47.847569 
L 319.675443 51.309188 
L 316.428898 53.905403 
L 313.182352 56.501618 
L 309.935807 59.530535 
L 306.689261 63.857559 
L 303.442716 66.021071 
L 300.19617 69.049988 
L 296.949625 72.511608 
L 293.70308 75.540525 
L 290.456534 78.569442 
L 287.209989 79.867549 
L 283.963443 83.329169 
L 280.716898 86.358086 
L 277.470352 87.656193 
L 274.223807 89.387003 
L 270.977261 93.714027 
L 267.730716 99.339159 
L 264.48417 101.502671 
L 261.237625 105.396993 
L 257.99108 109.291315 
L 254.744534 114.051042 
L 251.497989 117.945364 
L 248.251443 120.974281 
L 245.004898 125.734008 
L 241.758352 128.330223 
L 238.511807 130.926437 
L 235.265261 133.089949 
L 232.018716 137.416974 
L 228.77217 138.715081 
L 225.525625 139.580486 
L 222.27908 140.878593 
L 219.032534 141.311296 
L 215.785989 142.609403 
L 212.539443 144.340213 
L 209.292898 144.772915 
L 206.046352 146.071023 
L 202.799807 146.503725 
L 199.553261 147.36913 
L 196.306716 149.09994 
L 193.06017 150.398047 
L 189.813625 150.830749 
L 186.56708 152.128857 
L 183.320534 154.292369 
L 180.073989 156.023179 
L 176.827443 158.619393 
L 173.580898 160.782905 
L 170.334352 161.64831 
L 167.087807 162.946418 
L 163.841261 164.244525 
L 160.594716 166.408037 
L 157.34817 169.004252 
L 154.101625 170.735062 
L 150.85508 171.167764 
L 147.608534 172.465871 
L 144.361989 175.927491 
L 141.115443 176.792896 
L 137.868898 178.091003 
L 134.622352 178.956408 
L 131.375807 181.985325 
L 128.129261 185.014242 
L 124.882716 187.177754 
L 121.63617 189.773969 
L 118.389625 193.235588 
L 115.14308 195.399101 
L 111.896534 198.86072 
L 108.649989 203.187745 
L 105.403443 206.649364 
L 102.156898 210.543686 
L 98.910352 215.736115 
L 95.663807 223.957462 
L 92.417261 226.553676 
L 89.170716 231.746105 
L 85.92417 234.34232 
L 82.677625 242.130964 
L 79.43108 248.188798 
L 76.184534 252.515823 
L 72.937989 258.573657 
L 69.691443 263.333384 
L 66.444898 268.525813 
L 63.198352 275.016349 
" clip-path="url(#pab6d2ce690)" style="fill: none; stroke: #1f77b4; stroke-width: 5; stroke-linecap: square"/>
   </g>
   <g id="line2d_26">
    <path d="M 387.852898 22.318125 
L 384.606352 23.616232 
L 319.675443 24.91434 
L 257.99108 91.117813 
L 254.744534 91.550515 
L 202.799807 94.579432 
L 157.34817 172.033169 
L 154.101625 172.033169 
L 150.85508 174.629384 
L 137.868898 175.494788 
L 124.882716 201.024232 
L 115.14308 201.024232 
L 98.910352 223.524759 
L 92.417261 245.159881 
L 89.170716 246.025286 
L 85.92417 251.217715 
L 82.677625 252.515823 
L 79.43108 258.573657 
L 76.184534 262.467979 
L 72.937989 266.362301 
L 69.691443 270.256623 
L 66.444898 272.420135 
L 63.198352 274.583647 
" clip-path="url(#pab6d2ce690)" style="fill: none; stroke-dasharray: 15.54,6.72; stroke-dashoffset: 0; stroke: #ff7f0e; stroke-width: 4.2"/>
   </g>
   <g id="line2d_27">
    <path d="M 387.852898 22.318125 
L 384.606352 24.048935 
L 381.359807 27.077852 
L 378.113261 27.943257 
L 374.866716 28.808662 
L 371.62017 30.106769 
L 368.373625 31.837579 
L 365.12708 35.299198 
L 361.880534 37.030008 
L 358.633989 38.760818 
L 355.387443 41.357032 
L 352.140898 44.385949 
L 348.894352 47.847569 
L 345.647807 49.578379 
L 342.401261 50.443784 
L 339.154716 52.174593 
L 335.90817 54.338105 
L 332.661625 56.93432 
L 329.41508 58.66513 
L 326.168534 60.39594 
L 322.921989 61.694047 
L 319.675443 62.126749 
L 316.428898 64.290262 
L 313.182352 64.722964 
L 309.935807 66.021071 
L 306.689261 66.021071 
L 303.442716 67.319179 
L 300.19617 68.617286 
L 296.949625 69.482691 
L 293.70308 72.078905 
L 290.456534 72.94431 
L 287.209989 75.107823 
L 283.963443 77.704037 
L 280.716898 79.002145 
L 277.470352 81.598359 
L 274.223807 84.194574 
L 270.977261 86.358086 
L 267.730716 88.088896 
L 264.48417 90.68511 
L 261.237625 93.714027 
L 257.99108 96.310242 
L 254.744534 99.339159 
L 251.497989 103.666184 
L 248.251443 107.560505 
L 245.004898 111.88753 
L 241.758352 114.051042 
L 238.511807 116.214554 
L 235.265261 122.705091 
L 232.018716 126.16671 
L 225.525625 130.926437 
L 219.032534 149.965345 
L 215.785989 155.157774 
L 212.539443 159.052096 
L 209.292898 165.10993 
L 206.046352 168.138847 
L 202.799807 170.302359 
L 199.553261 178.091003 
L 196.306716 182.418027 
L 193.06017 187.610457 
L 189.813625 190.639374 
L 186.56708 194.533696 
L 183.320534 199.293423 
L 180.073989 204.485852 
L 176.827443 208.812876 
L 173.580898 213.139901 
L 170.334352 217.034223 
L 167.087807 221.361247 
L 163.841261 226.120974 
L 160.594716 227.419081 
L 157.34817 230.015296 
L 154.101625 230.880701 
L 150.85508 232.178808 
L 147.608534 233.044213 
L 144.361989 235.640427 
L 141.115443 236.07313 
L 137.868898 238.236642 
L 134.622352 240.400154 
L 131.375807 240.400154 
L 128.129261 241.265559 
L 124.882716 242.130964 
L 121.63617 243.429071 
L 118.389625 244.727179 
L 115.14308 248.621501 
L 111.896534 249.054203 
L 108.649989 252.08312 
L 105.403443 254.679335 
L 102.156898 255.977442 
L 98.910352 259.006359 
L 95.663807 262.035276 
L 92.417261 265.929598 
L 89.170716 266.795003 
L 85.92417 270.689325 
L 82.677625 273.28554 
L 79.43108 275.016349 
L 76.184534 278.045266 
L 72.937989 279.343374 
L 69.691443 283.237696 
L 66.444898 284.968505 
L 63.198352 287.997423 
" clip-path="url(#pab6d2ce690)" style="fill: none; stroke-dasharray: 21.76,5.44,3.4,5.44; stroke-dashoffset: 0; stroke: #2ca02c; stroke-width: 3.4"/>
   </g>
   <g id="line2d_28">
    <path d="M 387.852898 22.318125 
L 384.606352 22.750827 
L 381.359807 25.779745 
L 378.113261 27.510554 
L 374.866716 31.404876 
L 371.62017 32.702984 
L 368.373625 35.731901 
L 365.12708 37.46271 
L 361.880534 40.058925 
L 358.633989 43.087842 
L 355.387443 44.818652 
L 352.140898 49.145676 
L 348.894352 52.174593 
L 345.647807 54.338105 
L 342.401261 56.93432 
L 339.154716 59.530535 
L 335.90817 62.126749 
L 332.661625 62.126749 
L 329.41508 66.886476 
L 326.168534 68.184584 
L 322.921989 69.049988 
L 319.675443 69.915393 
L 316.428898 71.213501 
L 313.182352 71.646203 
L 309.935807 73.377013 
L 306.689261 75.107823 
L 303.442716 75.973227 
L 300.19617 77.704037 
L 296.949625 79.002145 
L 293.70308 79.002145 
L 290.456534 80.732954 
L 287.209989 82.896466 
L 283.963443 86.358086 
L 280.716898 88.088896 
L 277.470352 96.310242 
L 274.223807 99.339159 
L 270.977261 103.666184 
L 267.730716 106.262398 
L 264.48417 109.724018 
L 261.237625 112.752935 
L 257.99108 116.647257 
L 254.744534 120.974281 
L 251.497989 125.301305 
L 248.251443 131.791842 
L 245.004898 136.118866 
L 241.758352 140.445891 
L 238.511807 145.205618 
L 235.265261 150.830749 
L 232.018716 156.455881 
L 228.77217 159.917501 
L 225.525625 162.513715 
L 222.27908 167.273442 
L 219.032534 174.196681 
L 215.785989 181.11992 
L 212.539443 184.58154 
L 209.292898 189.341266 
L 206.046352 194.100993 
L 202.799807 201.024232 
L 199.553261 203.187745 
L 196.306716 207.082066 
L 193.06017 211.841793 
L 189.813625 216.168818 
L 186.56708 218.33233 
L 183.320534 220.06314 
L 180.073989 222.659354 
L 176.827443 225.255569 
L 173.580898 226.120974 
L 170.334352 229.582593 
L 167.087807 231.746105 
L 163.841261 233.909618 
L 160.594716 237.371237 
L 157.34817 239.534749 
L 154.101625 239.967452 
L 150.85508 241.698262 
L 147.608534 242.563666 
L 144.361989 243.861774 
L 141.115443 246.025286 
L 137.868898 246.025286 
L 134.622352 246.890691 
L 131.375807 247.756096 
L 128.129261 248.621501 
L 124.882716 249.486905 
L 121.63617 250.785013 
L 118.389625 252.948525 
L 115.14308 254.246632 
L 111.896534 255.977442 
L 108.649989 258.573657 
L 105.403443 260.304466 
L 102.156898 261.169871 
L 98.910352 263.333384 
L 95.663807 266.795003 
L 92.417261 269.82392 
L 89.170716 272.420135 
L 85.92417 273.718242 
L 82.677625 275.449052 
L 79.43108 278.910671 
L 76.184534 280.641481 
L 72.937989 281.939588 
L 69.691443 282.804993 
L 66.444898 283.670398 
L 63.198352 286.699315 
" clip-path="url(#pab6d2ce690)" style="fill: none; stroke-dasharray: 2.6,4.29; stroke-dashoffset: 0; stroke: #d62728; stroke-width: 2.6"/>
   </g>
   <g id="line2d_29">
    <path d="M 387.852898 22.318125 
L 384.606352 24.91434 
L 381.359807 26.645149 
L 378.113261 31.837579 
L 374.866716 35.731901 
L 371.62017 40.058925 
L 368.373625 44.385949 
L 365.12708 50.876486 
L 361.880534 54.770808 
L 358.633989 59.530535 
L 355.387443 65.588369 
L 352.140898 68.184584 
L 348.894352 71.213501 
L 345.647807 75.107823 
L 342.401261 79.434847 
L 339.154716 82.896466 
L 335.90817 87.223491 
L 332.661625 91.550515 
L 329.41508 95.87754 
L 326.168534 100.637266 
L 322.921989 102.368076 
L 319.675443 106.262398 
L 316.428898 111.022125 
L 313.182352 114.051042 
L 309.935807 116.214554 
L 306.689261 117.945364 
L 303.442716 119.676174 
L 300.19617 124.003198 
L 296.949625 127.032115 
L 293.70308 129.195627 
L 290.456534 134.388057 
L 287.209989 135.253462 
L 283.963443 139.147784 
L 280.716898 140.878593 
L 277.470352 143.474808 
L 274.223807 145.205618 
L 270.977261 146.071023 
L 267.730716 147.36913 
L 264.48417 149.09994 
L 261.237625 151.696154 
L 257.99108 152.994262 
L 254.744534 153.859666 
L 251.497989 156.455881 
L 248.251443 157.753988 
L 245.004898 159.484798 
L 241.758352 159.484798 
L 238.511807 160.350203 
L 235.265261 162.946418 
L 232.018716 163.811823 
L 228.77217 164.677227 
L 225.525625 165.10993 
L 222.27908 167.273442 
L 219.032534 167.706145 
L 215.785989 168.138847 
L 212.539443 169.004252 
L 209.292898 169.436954 
L 206.046352 170.735062 
L 202.799807 170.735062 
L 199.553261 171.167764 
L 196.306716 172.465871 
L 193.06017 173.331276 
L 189.813625 174.629384 
L 186.56708 174.629384 
L 183.320534 176.360193 
L 180.073989 177.225598 
L 176.827443 177.658301 
L 173.580898 178.523705 
L 170.334352 179.38911 
L 167.087807 181.552623 
L 163.841261 183.716135 
L 160.594716 185.014242 
L 157.34817 185.446945 
L 154.101625 186.312349 
L 150.85508 186.745052 
L 147.608534 188.475862 
L 144.361989 190.639374 
L 141.115443 194.533696 
L 137.868898 196.264505 
L 134.622352 198.428018 
L 131.375807 200.59153 
L 128.129261 202.32234 
L 124.882716 204.053149 
L 121.63617 206.216662 
L 118.389625 208.380174 
L 115.14308 209.678281 
L 111.896534 212.274496 
L 108.649989 217.034223 
L 105.403443 220.928545 
L 102.156898 224.822866 
L 98.910352 228.717188 
L 95.663807 233.044213 
L 92.417261 238.236642 
L 89.170716 242.996369 
L 85.92417 246.457988 
L 82.677625 254.679335 
L 79.43108 260.304466 
L 76.184534 262.900681 
L 72.937989 266.362301 
L 69.691443 273.28554 
L 66.444898 278.045266 
L 63.198352 283.670398 
" clip-path="url(#pab6d2ce690)" style="fill: none; stroke: #9467bd; stroke-width: 1.8; stroke-linecap: square"/>
   </g>
   <g id="patch_3">
    <path d="M 46.965625 288.430125 
L 46.965625 22.318125 
" style="fill: none; stroke: #000000; stroke-width: 0.8; stroke-linejoin: miter; stroke-linecap: square"/>
   </g>
   <g id="patch_4">
    <path d="M 404.085625 288.430125 
L 404.085625 22.318125 
" style="fill: none; stroke: #000000; stroke-width: 0.8; stroke-linejoin: miter; stroke-linecap: square"/>
   </g>
   <g id="patch_5">
    <path d="M 46.965625 288.430125 
L 404.085625 288.430125 
" style="fill: none; stroke: #000000; stroke-width: 0.8; stroke-linejoin: miter; stroke-linecap: square"/>
   </g>
   <g id="patch_6">
    <path d="M 46.965625 22.318125 
L 404.085625 22.318125 
" style="fill: none; stroke: #000000; stroke-width: 0.8; stroke-linejoin: miter; stroke-linecap: square"/>
   </g>
   <g id="text_15">
    <!-- Cumulative % of goals for playoffs games -->
    <g transform="translate(100.282188 16.318125) scale(0.12 -0.12)">
     <defs>
      <path id="DejaVuSans-43" d="M 4122 4306 
L 4122 3641 
Q 3803 3938 3442 4084 
Q 3081 4231 2675 4231 
Q 1875 4231 1450 3742 
Q 1025 3253 1025 2328 
Q 1025 1406 1450 917 
Q 1875 428 2675 428 
Q 3081 428 3442 575 
Q 3803 722 4122 1019 
L 4122 359 
Q 3791 134 3420 21 
Q 3050 -91 2638 -91 
Q 1578 -91 968 557 
Q 359 1206 359 2328 
Q 359 3453 968 4101 
Q 1578 4750 2638 4750 
Q 3056 4750 3426 4639 
Q 3797 4528 4122 4306 
z
" transform="scale(0.015625)"/>
      <path id="DejaVuSans-75" d="M 544 1381 
L 544 3500 
L 1119 3500 
L 1119 1403 
Q 1119 906 1312 657 
Q 1506 409 1894 409 
Q 2359 409 2629 706 
Q 2900 1003 2900 1516 
L 2900 3500 
L 3475 3500 
L 3475 0 
L 2900 0 
L 2900 538 
Q 2691 219 2414 64 
Q 2138 -91 1772 -91 
Q 1169 -91 856 284 
Q 544 659 544 1381 
z
M 1991 3584 
L 1991 3584 
z
" transform="scale(0.015625)"/>
      <path id="DejaVuSans-76" d="M 191 3500 
L 800 3500 
L 1894 563 
L 2988 3500 
L 3597 3500 
L 2284 0 
L 1503 0 
L 191 3500 
z
" transform="scale(0.015625)"/>
      <path id="DejaVuSans-25" d="M 4653 2053 
Q 4381 2053 4226 1822 
Q 4072 1591 4072 1178 
Q 4072 772 4226 539 
Q 4381 306 4653 306 
Q 4919 306 5073 539 
Q 5228 772 5228 1178 
Q 5228 1588 5073 1820 
Q 4919 2053 4653 2053 
z
M 4653 2450 
Q 5147 2450 5437 2106 
Q 5728 1763 5728 1178 
Q 5728 594 5436 251 
Q 5144 -91 4653 -91 
Q 4153 -91 3862 251 
Q 3572 594 3572 1178 
Q 3572 1766 3864 2108 
Q 4156 2450 4653 2450 
z
M 1428 4353 
Q 1159 4353 1004 4120 
Q 850 3888 850 3481 
Q 850 3069 1003 2837 
Q 1156 2606 1428 2606 
Q 1700 2606 1854 2837 
Q 2009 3069 2009 3481 
Q 2009 3884 1853 4118 
Q 1697 4353 1428 4353 
z
M 4250 4750 
L 4750 4750 
L 1831 -91 
L 1331 -91 
L 4250 4750 
z
M 1428 4750 
Q 1922 4750 2215 4408 
Q 2509 4066 2509 3481 
Q 2509 2891 2217 2550 
Q 1925 2209 1428 2209 
Q 931 2209 642 2551 
Q 353 2894 353 3481 
Q 353 4063 643 4406 
Q 934 4750 1428 4750 
z
" transform="scale(0.015625)"/>
      <path id="DejaVuSans-66" d="M 2375 4863 
L 2375 4384 
L 1825 4384 
Q 1516 4384 1395 4259 
Q 1275 4134 1275 3809 
L 1275 3500 
L 2222 3500 
L 2222 3053 
L 1275 3053 
L 1275 0 
L 697 0 
L 697 3053 
L 147 3053 
L 147 3500 
L 697 3500 
L 697 3744 
Q 697 4328 969 4595 
Q 1241 4863 1831 4863 
L 2375 4863 
z
" transform="scale(0.015625)"/>
      <path id="DejaVuSans-67" d="M 2906 1791 
Q 2906 2416 2648 2759 
Q 2391 3103 1925 3103 
Q 1463 3103 1205 2759 
Q 947 2416 947 1791 
Q 947 1169 1205 825 
Q 1463 481 1925 481 
Q 2391 481 2648 825 
Q 2906 1169 2906 1791 
z
M 3481 434 
Q 3481 -459 3084 -895 
Q 2688 -1331 1869 -1331 
Q 1566 -1331 1297 -1286 
Q 1028 -1241 775 -1147 
L 775 -588 
Q 1028 -725 1275 -790 
Q 1522 -856 1778 -856 
Q 2344 -856 2625 -561 
Q 2906 -266 2906 331 
L 2906 616 
Q 2728 306 2450 153 
Q 2172 0 1784 0 
Q 1141 0 747 490 
Q 353 981 353 1791 
Q 353 2603 747 3093 
Q 1141 3584 1784 3584 
Q 2172 3584 2450 3431 
Q 2728 3278 2906 2969 
L 2906 3500 
L 3481 3500 
L 3481 434 
z
" transform="scale(0.015625)"/>
      <path id="DejaVuSans-73" d="M 2834 3397 
L 2834 2853 
Q 2591 2978 2328 3040 
Q 2066 3103 1784 3103 
Q 1356 3103 1142 2972 
Q 928 2841 928 2578 
Q 928 2378 1081 2264 
Q 1234 2150 1697 2047 
L 1894 2003 
Q 2506 1872 2764 1633 
Q 3022 1394 3022 966 
Q 3022 478 2636 193 
Q 2250 -91 1575 -91 
Q 1294 -91 989 -36 
Q 684 19 347 128 
L 347 722 
Q 666 556 975 473 
Q 1284 391 1588 391 
Q 1994 391 2212 530 
Q 2431 669 2431 922 
Q 2431 1156 2273 1281 
Q 2116 1406 1581 1522 
L 1381 1569 
Q 847 1681 609 1914 
Q 372 2147 372 2553 
Q 372 3047 722 3315 
Q 1072 3584 1716 3584 
Q 2034 3584 2315 3537 
Q 2597 3491 2834 3397 
z
" transform="scale(0.015625)"/>
     </defs>
     <use xlink:href="#DejaVuSans-43"/>
     <use xlink:href="#DejaVuSans-75" x="69.824219"/>
     <use xlink:href="#DejaVuSans-6d" x="133.203125"/>
     <use xlink:href="#DejaVuSans-75" x="230.615234"/>
     <use xlink:href="#DejaVuSans-6c" x="293.994141"/>
     <use xlink:href="#DejaVuSans-61" x="321.777344"/>
     <use xlink:href="#DejaVuSans-74" x="383.056641"/>
     <use xlink:href="#DejaVuSans-69" x="422.265625"/>
     <use xlink:href="#DejaVuSans-76" x="450.048828"/>
     <use xlink:href="#DejaVuSans-65" x="509.228516"/>
     <use xlink:href="#DejaVuSans-20" x="570.751953"/>
     <use xlink:href="#DejaVuSans-25" x="602.539062"/>
     <use xlink:href="#DejaVuSans-20" x="697.558594"/>
     <use xlink:href="#DejaVuSans-6f" x="729.345703"/>
     <use xlink:href="#DejaVuSans-66" x="790.527344"/>
     <use xlink:href="#DejaVuSans-20" x="825.732422"/>
     <use xlink:href="#DejaVuSans-67" x="857.519531"/>
     <use xlink:href="#DejaVuSans-6f" x="920.996094"/>
     <use xlink:href="#DejaVuSans-61" x="982.177734"/>
     <use xlink:href="#DejaVuSans-6c" x="1043.457031"/>
     <use xlink:href="#DejaVuSans-73" x="1071.240234"/>
     <use xlink:href="#DejaVuSans-20" x="1123.339844"/>
     <use xlink:href="#DejaVuSans-66" x="1155.126953"/>
     <use xlink:href="#DejaVuSans-6f" x="1190.332031"/>
     <use xlink:href="#DejaVuSans-72" x="1251.513672"/>
     <use xlink:href="#DejaVuSans-20" x="1292.626953"/>
     <use xlink:href="#DejaVuSans-70" x="1324.414062"/>
     <use xlink:href="#DejaVuSans-6c" x="1387.890625"/>
     <use xlink:href="#DejaVuSans-61" x="1415.673828"/>
     <use xlink:href="#DejaVuSans-79" x="1476.953125"/>
     <use xlink:href="#DejaVuSans-6f" x="1536.132812"/>
     <use xlink:href="#DejaVuSans-66" x="1597.314453"/>
     <use xlink:href="#DejaVuSans-66" x="1632.519531"/>
     <use xlink:href="#DejaVuSans-73" x="1667.724609"/>
     <use xlink:href="#DejaVuSans-20" x="1719.824219"/>
     <use xlink:href="#DejaVuSans-67" x="1751.611328"/>
     <use xlink:href="#DejaVuSans-61" x="1815.087891"/>
     <use xlink:href="#DejaVuSans-6d" x="1876.367188"/>
     <use xlink:href="#DejaVuSans-65" x="1973.779297"/>
     <use xlink:href="#DejaVuSans-73" x="2035.302734"/>
    </g>
   </g>
   <g id="legend_1">
    <g id="patch_7">
     <path d="M 160.309063 283.430125 
L 397.085625 283.430125 
Q 399.085625 283.430125 399.085625 281.430125 
L 399.085625 207.648875 
Q 399.085625 205.648875 397.085625 205.648875 
L 160.309063 205.648875 
Q 158.309063 205.648875 158.309063 207.648875 
L 158.309063 281.430125 
Q 158.309063 283.430125 160.309063 283.430125 
z
" style="fill: #ffffff; opacity: 0.8; stroke: #cccccc; stroke-linejoin: miter"/>
    </g>
    <g id="line2d_30">
     <path d="M 162.309063 213.747312 
L 172.309063 213.747312 
L 182.309063 213.747312 
" style="fill: none; stroke: #1f77b4; stroke-width: 5; stroke-linecap: square"/>
    </g>
    <g id="text_16">
     <!-- Neural_Network -->
     <g transform="translate(190.309063 217.247312) scale(0.1 -0.1)">
      <defs>
       <path id="DejaVuSans-4e" d="M 628 4666 
L 1478 4666 
L 3547 763 
L 3547 4666 
L 4159 4666 
L 4159 0 
L 3309 0 
L 1241 3903 
L 1241 0 
L 628 0 
L 628 4666 
z
" transform="scale(0.015625)"/>
       <path id="DejaVuSans-5f" d="M 3263 -1063 
L 3263 -1509 
L -63 -1509 
L -63 -1063 
L 3263 -1063 
z
" transform="scale(0.015625)"/>
       <path id="DejaVuSans-77" d="M 269 3500 
L 844 3500 
L 1563 769 
L 2278 3500 
L 2956 3500 
L 3675 769 
L 4391 3500 
L 4966 3500 
L 4050 0 
L 3372 0 
L 2619 2869 
L 1863 0 
L 1184 0 
L 269 3500 
z
" transform="scale(0.015625)"/>
       <path id="DejaVuSans-6b" d="M 581 4863 
L 1159 4863 
L 1159 1991 
L 2875 3500 
L 3609 3500 
L 1753 1863 
L 3688 0 
L 2938 0 
L 1159 1709 
L 1159 0 
L 581 0 
L 581 4863 
z
" transform="scale(0.015625)"/>
      </defs>
      <use xlink:href="#DejaVuSans-4e"/>
      <use xlink:href="#DejaVuSans-65" x="74.804688"/>
      <use xlink:href="#DejaVuSans-75" x="136.328125"/>
      <use xlink:href="#DejaVuSans-72" x="199.707031"/>
      <use xlink:href="#DejaVuSans-61" x="240.820312"/>
      <use xlink:href="#DejaVuSans-6c" x="302.099609"/>
      <use xlink:href="#DejaVuSans-5f" x="329.882812"/>
      <use xlink:href="#DejaVuSans-4e" x="379.882812"/>
      <use xlink:href="#DejaVuSans-65" x="454.6875"/>
      <use xlink:href="#DejaVuSans-74" x="516.210938"/>
      <use xlink:href="#DejaVuSans-77" x="555.419922"/>
      <use xlink:href="#DejaVuSans-6f" x="637.207031"/>
      <use xlink:href="#DejaVuSans-72" x="698.388672"/>
      <use xlink:href="#DejaVuSans-6b" x="739.501953"/>
     </g>
    </g>
    <g id="line2d_31">
     <path d="M 162.309063 228.703562 
L 172.309063 228.703562 
L 182.309063 228.703562 
" style="fill: none; stroke-dasharray: 15.54,6.72; stroke-dashoffset: 0; stroke: #ff7f0e; stroke-width: 4.2"/>
    </g>
    <g id="text_17">
     <!-- xgboost_feature_selection_class_weights -->
     <g transform="translate(190.309063 232.203562) scale(0.1 -0.1)">
      <defs>
       <path id="DejaVuSans-78" d="M 3513 3500 
L 2247 1797 
L 3578 0 
L 2900 0 
L 1881 1375 
L 863 0 
L 184 0 
L 1544 1831 
L 300 3500 
L 978 3500 
L 1906 2253 
L 2834 3500 
L 3513 3500 
z
" transform="scale(0.015625)"/>
      </defs>
      <use xlink:href="#DejaVuSans-78"/>
      <use xlink:href="#DejaVuSans-67" x="59.179688"/>
      <use xlink:href="#DejaVuSans-62" x="122.65625"/>
      <use xlink:href="#DejaVuSans-6f" x="186.132812"/>
      <use xlink:href="#DejaVuSans-6f" x="247.314453"/>
      <use xlink:href="#DejaVuSans-73" x="308.496094"/>
      <use xlink:href="#DejaVuSans-74" x="360.595703"/>
      <use xlink:href="#DejaVuSans-5f" x="399.804688"/>
      <use xlink:href="#DejaVuSans-66" x="449.804688"/>
      <use xlink:href="#DejaVuSans-65" x="485.009766"/>
      <use xlink:href="#DejaVuSans-61" x="546.533203"/>
      <use xlink:href="#DejaVuSans-74" x="607.8125"/>
      <use xlink:href="#DejaVuSans-75" x="647.021484"/>
      <use xlink:href="#DejaVuSans-72" x="710.400391"/>
      <use xlink:href="#DejaVuSans-65" x="749.263672"/>
      <use xlink:href="#DejaVuSans-5f" x="810.787109"/>
      <use xlink:href="#DejaVuSans-73" x="860.787109"/>
      <use xlink:href="#DejaVuSans-65" x="912.886719"/>
      <use xlink:href="#DejaVuSans-6c" x="974.410156"/>
      <use xlink:href="#DejaVuSans-65" x="1002.193359"/>
      <use xlink:href="#DejaVuSans-63" x="1063.716797"/>
      <use xlink:href="#DejaVuSans-74" x="1118.697266"/>
      <use xlink:href="#DejaVuSans-69" x="1157.90625"/>
      <use xlink:href="#DejaVuSans-6f" x="1185.689453"/>
      <use xlink:href="#DejaVuSans-6e" x="1246.871094"/>
      <use xlink:href="#DejaVuSans-5f" x="1310.25"/>
      <use xlink:href="#DejaVuSans-63" x="1360.25"/>
      <use xlink:href="#DejaVuSans-6c" x="1415.230469"/>
      <use xlink:href="#DejaVuSans-61" x="1443.013672"/>
      <use xlink:href="#DejaVuSans-73" x="1504.292969"/>
      <use xlink:href="#DejaVuSans-73" x="1556.392578"/>
      <use xlink:href="#DejaVuSans-5f" x="1608.492188"/>
      <use xlink:href="#DejaVuSans-77" x="1658.492188"/>
      <use xlink:href="#DejaVuSans-65" x="1740.279297"/>
      <use xlink:href="#DejaVuSans-69" x="1801.802734"/>
      <use xlink:href="#DejaVuSans-67" x="1829.585938"/>
      <use xlink:href="#DejaVuSans-68" x="1893.0625"/>
      <use xlink:href="#DejaVuSans-74" x="1956.441406"/>
      <use xlink:href="#DejaVuSans-73" x="1995.650391"/>
     </g>
    </g>
    <g id="line2d_32">
     <path d="M 162.309063 243.659812 
L 172.309063 243.659812 
L 182.309063 243.659812 
" style="fill: none; stroke-dasharray: 21.76,5.44,3.4,5.44; stroke-dashoffset: 0; stroke: #2ca02c; stroke-width: 3.4"/>
    </g>
    <g id="text_18">
     <!-- LinearModel_Angle -->
     <g transform="translate(190.309063 247.159812) scale(0.1 -0.1)">
      <defs>
       <path id="DejaVuSans-4c" d="M 628 4666 
L 1259 4666 
L 1259 531 
L 3531 531 
L 3531 0 
L 628 0 
L 628 4666 
z
" transform="scale(0.015625)"/>
       <path id="DejaVuSans-4d" d="M 628 4666 
L 1569 4666 
L 2759 1491 
L 3956 4666 
L 4897 4666 
L 4897 0 
L 4281 0 
L 4281 4097 
L 3078 897 
L 2444 897 
L 1241 4097 
L 1241 0 
L 628 0 
L 628 4666 
z
" transform="scale(0.015625)"/>
       <path id="DejaVuSans-41" d="M 2188 4044 
L 1331 1722 
L 3047 1722 
L 2188 4044 
z
M 1831 4666 
L 2547 4666 
L 4325 0 
L 3669 0 
L 3244 1197 
L 1141 1197 
L 716 0 
L 50 0 
L 1831 4666 
z
" transform="scale(0.015625)"/>
      </defs>
      <use xlink:href="#DejaVuSans-4c"/>
      <use xlink:href="#DejaVuSans-69" x="55.712891"/>
      <use xlink:href="#DejaVuSans-6e" x="83.496094"/>
      <use xlink:href="#DejaVuSans-65" x="146.875"/>
      <use xlink:href="#DejaVuSans-61" x="208.398438"/>
      <use xlink:href="#DejaVuSans-72" x="269.677734"/>
      <use xlink:href="#DejaVuSans-4d" x="310.791016"/>
      <use xlink:href="#DejaVuSans-6f" x="397.070312"/>
      <use xlink:href="#DejaVuSans-64" x="458.251953"/>
      <use xlink:href="#DejaVuSans-65" x="521.728516"/>
      <use xlink:href="#DejaVuSans-6c" x="583.251953"/>
      <use xlink:href="#DejaVuSans-5f" x="611.035156"/>
      <use xlink:href="#DejaVuSans-41" x="661.035156"/>
      <use xlink:href="#DejaVuSans-6e" x="729.443359"/>
      <use xlink:href="#DejaVuSans-67" x="792.822266"/>
      <use xlink:href="#DejaVuSans-6c" x="856.298828"/>
      <use xlink:href="#DejaVuSans-65" x="884.082031"/>
     </g>
    </g>
    <g id="line2d_33">
     <path d="M 162.309063 258.616062 
L 172.309063 258.616062 
L 182.309063 258.616062 
" style="fill: none; stroke-dasharray: 2.6,4.29; stroke-dashoffset: 0; stroke: #d62728; stroke-width: 2.6"/>
    </g>
    <g id="text_19">
     <!-- LinearModel_Angle_Distance -->
     <g transform="translate(190.309063 262.116062) scale(0.1 -0.1)">
      <defs>
       <path id="DejaVuSans-44" d="M 1259 4147 
L 1259 519 
L 2022 519 
Q 2988 519 3436 956 
Q 3884 1394 3884 2338 
Q 3884 3275 3436 3711 
Q 2988 4147 2022 4147 
L 1259 4147 
z
M 628 4666 
L 1925 4666 
Q 3281 4666 3915 4102 
Q 4550 3538 4550 2338 
Q 4550 1131 3912 565 
Q 3275 0 1925 0 
L 628 0 
L 628 4666 
z
" transform="scale(0.015625)"/>
      </defs>
      <use xlink:href="#DejaVuSans-4c"/>
      <use xlink:href="#DejaVuSans-69" x="55.712891"/>
      <use xlink:href="#DejaVuSans-6e" x="83.496094"/>
      <use xlink:href="#DejaVuSans-65" x="146.875"/>
      <use xlink:href="#DejaVuSans-61" x="208.398438"/>
      <use xlink:href="#DejaVuSans-72" x="269.677734"/>
      <use xlink:href="#DejaVuSans-4d" x="310.791016"/>
      <use xlink:href="#DejaVuSans-6f" x="397.070312"/>
      <use xlink:href="#DejaVuSans-64" x="458.251953"/>
      <use xlink:href="#DejaVuSans-65" x="521.728516"/>
      <use xlink:href="#DejaVuSans-6c" x="583.251953"/>
      <use xlink:href="#DejaVuSans-5f" x="611.035156"/>
      <use xlink:href="#DejaVuSans-41" x="661.035156"/>
      <use xlink:href="#DejaVuSans-6e" x="729.443359"/>
      <use xlink:href="#DejaVuSans-67" x="792.822266"/>
      <use xlink:href="#DejaVuSans-6c" x="856.298828"/>
      <use xlink:href="#DejaVuSans-65" x="884.082031"/>
      <use xlink:href="#DejaVuSans-5f" x="945.605469"/>
      <use xlink:href="#DejaVuSans-44" x="995.605469"/>
      <use xlink:href="#DejaVuSans-69" x="1072.607422"/>
      <use xlink:href="#DejaVuSans-73" x="1100.390625"/>
      <use xlink:href="#DejaVuSans-74" x="1152.490234"/>
      <use xlink:href="#DejaVuSans-61" x="1191.699219"/>
      <use xlink:href="#DejaVuSans-6e" x="1252.978516"/>
      <use xlink:href="#DejaVuSans-63" x="1316.357422"/>
      <use xlink:href="#DejaVuSans-65" x="1371.337891"/>
     </g>
    </g>
    <g id="line2d_34">
     <path d="M 162.309063 273.572312 
L 172.309063 273.572312 
L 182.309063 273.572312 
" style="fill: none; stroke: #9467bd; stroke-width: 1.8; stroke-linecap: square"/>
    </g>
    <g id="text_20">
     <!-- LinearModel_Distance -->
     <g transform="translate(190.309063 277.072312) scale(0.1 -0.1)">
      <use xlink:href="#DejaVuSans-4c"/>
      <use xlink:href="#DejaVuSans-69" x="55.712891"/>
      <use xlink:href="#DejaVuSans-6e" x="83.496094"/>
      <use xlink:href="#DejaVuSans-65" x="146.875"/>
      <use xlink:href="#DejaVuSans-61" x="208.398438"/>
      <use xlink:href="#DejaVuSans-72" x="269.677734"/>
      <use xlink:href="#DejaVuSans-4d" x="310.791016"/>
      <use xlink:href="#DejaVuSans-6f" x="397.070312"/>
      <use xlink:href="#DejaVuSans-64" x="458.251953"/>
      <use xlink:href="#DejaVuSans-65" x="521.728516"/>
      <use xlink:href="#DejaVuSans-6c" x="583.251953"/>
      <use xlink:href="#DejaVuSans-5f" x="611.035156"/>
      <use xlink:href="#DejaVuSans-44" x="661.035156"/>
      <use xlink:href="#DejaVuSans-69" x="738.037109"/>
      <use xlink:href="#DejaVuSans-73" x="765.820312"/>
      <use xlink:href="#DejaVuSans-74" x="817.919922"/>
      <use xlink:href="#DejaVuSans-61" x="857.128906"/>
      <use xlink:href="#DejaVuSans-6e" x="918.408203"/>
      <use xlink:href="#DejaVuSans-63" x="981.787109"/>
      <use xlink:href="#DejaVuSans-65" x="1036.767578"/>
     </g>
    </g>
   </g>
  </g>
 </g>
 <defs>
  <clipPath id="pab6d2ce690">
   <rect x="46.965625" y="22.318125" width="357.12" height="266.112"/>
  </clipPath>
 </defs>
</svg>
